<svg width="32" height="32" viewBox="0 0 32 32" fill="none" xmlns="http://www.w3.org/2000/svg">
<path d="M0 6C0 2.68629 2.68629 0 6 0H26C29.3137 0 32 2.68629 32 6V26C32 29.3137 29.3137 32 26 32H6C2.68629 32 0 29.3137 0 26V6Z" fill="white"/>
<g clip-path="url(#clip0_108_638)">
<path d="M24.0156 4.28125H7.98438C5.78387 4.28125 4 6.06512 4 8.26563V23.6969C4 25.8974 5.78387 27.6813 7.98438 27.6813H24.0156C26.2161 27.6813 28 25.8974 28 23.6969V8.26563C28 6.06512 26.2161 4.28125 24.0156 4.28125Z" fill="#330000"/>
<path d="M15.6297 18.3241H11.9107L11.1539 20.6747C11.1436 20.7176 11.1187 20.7555 11.0834 20.782C11.0481 20.8084 11.0047 20.8217 10.9607 20.8196H9.07699C8.96961 20.8196 8.93205 20.7606 8.9643 20.6424L12.1843 11.3689C12.2165 11.2723 12.2487 11.1623 12.2809 11.0389C12.3231 10.824 12.3446 10.6057 12.3453 10.3868C12.3431 10.3715 12.3445 10.3559 12.3494 10.3412C12.3543 10.3266 12.3625 10.3132 12.3735 10.3023C12.3844 10.2913 12.3977 10.2831 12.4124 10.2782C12.4271 10.2733 12.4427 10.2719 12.458 10.2741H15.0179C15.0929 10.2741 15.1359 10.3009 15.1467 10.3547L18.8014 20.6586C18.8336 20.7661 18.8014 20.8197 18.7048 20.8196H16.6118C16.5758 20.8236 16.5397 20.8143 16.5101 20.7936C16.4805 20.7728 16.4594 20.742 16.4508 20.7069L15.6297 18.3241ZM12.4902 16.2955H15.034L14.9978 16.1758L14.9395 15.9862L14.898 15.8531L14.8317 15.6435L14.6908 15.2022L14.5669 14.811L14.245 13.7919C14.1649 13.5386 14.0881 13.2843 14.0144 13.029L13.9555 12.8218L13.8867 12.5768L13.7817 12.1972L13.762 12.1256H13.746C13.6654 12.5121 13.5673 12.8947 13.452 13.2722L13.2131 14.0406L13.0817 14.4651L12.949 14.8948C12.9251 14.9724 12.9012 15.0492 12.8773 15.1251L12.8061 15.3499L12.7352 15.5694L12.6647 15.7836L12.5946 15.9923C12.5713 16.0611 12.5481 16.1289 12.5249 16.1958L12.4902 16.2955ZM20.9747 11.9807C20.8105 11.9873 20.6468 11.9591 20.4942 11.8981C20.3416 11.837 20.2036 11.7445 20.0892 11.6265C19.9752 11.5033 19.8867 11.3588 19.8287 11.2014C19.7706 11.0439 19.7443 10.8765 19.7511 10.7088C19.7452 10.5428 19.7745 10.3774 19.8369 10.2234C19.8993 10.0695 19.9935 9.93042 20.1133 9.81534C20.3444 9.5935 20.6522 9.46935 20.9725 9.46875L21.0069 9.46913C21.3933 9.46913 21.6965 9.5845 21.9166 9.81525C22.0277 9.93518 22.114 10.0758 22.1706 10.2292C22.2272 10.3825 22.253 10.5455 22.2466 10.7088C22.2534 10.8772 22.2263 11.0452 22.1668 11.2029C22.1074 11.3605 22.0168 11.5046 21.9005 11.6266C21.7831 11.7423 21.6438 11.8333 21.4907 11.8943C21.3376 11.9553 21.1739 11.9851 21.0091 11.9819L20.9747 11.9807ZM19.8638 20.6586V12.9628C19.8637 12.8662 19.9066 12.8179 19.9926 12.8179H21.973C22.0588 12.8179 22.1017 12.8662 22.1018 12.9628V20.6586C22.1018 20.7661 22.0588 20.8197 21.973 20.8196H20.0087C19.9172 20.8196 19.869 20.7714 19.8642 20.6751L19.8638 20.6586Z" fill="#FF9A00"/>
</g>
<defs>
<clipPath id="clip0_108_638">
<rect width="24" height="23.4375" fill="white" transform="translate(4 4.28125)"/>
</clipPath>
</defs>
</svg>
