<svg width="32" height="32" viewBox="0 0 32 32" fill="none" xmlns="http://www.w3.org/2000/svg">
<path d="M0 6C0 2.68629 2.68629 0 6 0H26C29.3137 0 32 2.68629 32 6V26C32 29.3137 29.3137 32 26 32H6C2.68629 32 0 29.3137 0 26V6Z" fill="white"/>
<g clip-path="url(#clip0_108_604)">
<path d="M8.98488 6.4375C7.61547 6.4375 6.60212 7.63609 6.6475 8.93594C6.69109 10.1847 6.63447 11.8022 6.22731 13.1211C5.81894 14.4439 5.12819 15.2819 4 15.3895V16.6041C5.12819 16.7118 5.81894 17.5497 6.22731 18.8726C6.63447 20.1916 6.69109 21.8088 6.6475 23.0577C6.60212 24.3573 7.61547 25.5561 8.98506 25.5561H23.0169C24.3864 25.5561 25.3995 24.3575 25.3541 23.0577C25.3106 21.8089 25.3671 20.1916 25.7743 18.8726C26.1829 17.5498 26.8718 16.7117 28 16.6041V15.3895C26.8718 15.2819 26.1829 14.4439 25.7744 13.1211C25.3671 11.8023 25.3106 10.1848 25.3541 8.93594C25.3995 7.63628 24.3864 6.4375 23.0169 6.4375H8.98469H8.98488ZM20.2712 18.2062C20.2712 19.9961 18.9363 21.0815 16.7208 21.0815H12.9492C12.8413 21.0815 12.7379 21.0386 12.6616 20.9623C12.5854 20.886 12.5425 20.7826 12.5425 20.6747V11.3189C12.5425 11.211 12.5854 11.1075 12.6616 11.0312C12.7379 10.9549 12.8414 10.912 12.9493 10.912H16.6992C18.5465 10.912 19.7589 11.9128 19.7589 13.4492C19.7589 14.5276 18.9433 15.493 17.9042 15.662V15.7184C19.3188 15.8735 20.2712 16.8531 20.2712 18.2062ZM16.3094 12.2015H14.159V15.239H15.9703C17.3703 15.239 18.1425 14.6752 18.1425 13.6674C18.1425 12.7231 17.4784 12.2015 16.3094 12.2015ZM14.1591 16.4443V19.7916H16.3887C17.8463 19.7916 18.6186 19.2067 18.6186 18.1074C18.6186 17.0079 17.8248 16.4441 16.2949 16.4441H14.1591V16.4443Z" fill="#7E13F8"/>
</g>
<defs>
<clipPath id="clip0_108_604">
<rect width="24" height="19.125" fill="white" transform="translate(4 6.4375)"/>
</clipPath>
</defs>
</svg>
