<svg width="32" height="32" viewBox="0 0 32 32" fill="none" xmlns="http://www.w3.org/2000/svg">
<path d="M0 6C0 2.68629 2.68629 0 6 0H26C29.3137 0 32 2.68629 32 6V26C32 29.3137 29.3137 32 26 32H6C2.68629 32 0 29.3137 0 26V6Z" fill="white"/>
<g clip-path="url(#clip0_108_367)">
<path d="M26.269 21.9663C26.4359 21.677 26.5392 21.3513 26.5392 21.0582V10.8963C26.5392 10.6041 26.436 10.2781 26.269 9.98877L15.8965 15.9775L26.269 21.9663Z" fill="#00599C"/>
<path d="M16.8175 27.7349L25.6174 22.6548C25.8709 22.5084 26.1015 22.2556 26.2686 21.9663L15.8961 15.9775L5.52246 21.9663C5.68934 22.2556 5.92015 22.5082 6.17365 22.6548L14.9736 27.7349C15.4804 28.0278 16.3105 28.0278 16.8171 27.7349H16.8175Z" fill="#004482"/>
<path d="M26.2691 9.98898C26.102 9.69911 25.8714 9.44636 25.6179 9.30067L16.8177 4.2198C16.3109 3.92673 15.4811 3.92673 14.9742 4.2198L6.1743 9.30067C5.6673 9.5928 5.25293 10.3113 5.25293 10.8963V21.058C5.25293 21.3509 5.35605 21.6768 5.52312 21.9661L15.8964 15.9775L26.2691 9.98898Z" fill="#659AD2"/>
<path d="M15.8963 8.88154C11.9838 8.88154 8.80078 12.0647 8.80078 15.9773C8.80078 19.8898 11.9838 23.073 15.8963 23.073C18.421 23.073 20.7758 21.7142 22.0407 19.5274L18.9704 17.7503C18.3367 18.8453 17.1592 19.525 15.8963 19.525C13.9402 19.525 12.3485 17.9335 12.3485 15.9771C12.3485 14.0207 13.9403 12.4292 15.8963 12.4292C17.1582 12.4292 18.337 13.1097 18.9695 14.2039L22.0407 12.427C20.7751 10.24 18.421 8.88154 15.8963 8.88154ZM21.4154 14.7943V15.5832H20.6266V16.3712H21.4154V17.16H22.2035V16.3712H22.9915V15.5832H22.2035V14.7943H21.4154ZM24.3715 14.7943V15.5832H23.5833V16.3712H24.3715V17.16H25.1603V16.3712H25.9484V15.5832H25.1603V14.7943H24.3715Z" fill="white"/>
</g>
<defs>
<clipPath id="clip0_108_367">
<rect width="24" height="24" fill="white" transform="translate(4 4)"/>
</clipPath>
</defs>
</svg>
