<svg width="32" height="32" viewBox="0 0 32 32" fill="none" xmlns="http://www.w3.org/2000/svg">
<path d="M0 6C0 2.68629 2.68629 0 6 0H26C29.3137 0 32 2.68629 32 6V26C32 29.3137 29.3137 32 26 32H6C2.68629 32 0 29.3137 0 26V6Z" fill="white"/>
<path d="M25.6375 9.75623L16.5813 4.54373C16.4313 4.44998 16.225 4.41248 16 4.41248C15.775 4.41248 15.5688 4.46873 15.4188 4.54373L6.41875 9.77498C6.1 9.96248 5.875 10.4312 5.875 10.7875V21.2312C5.875 21.4375 5.9125 21.6812 6.0625 21.8875L26.0875 10.2625C25.975 10.0375 25.8063 9.86873 25.6375 9.75623Z" fill="#9B4F96"/>
<path d="M6.00586 21.8688C6.09961 22.0188 6.23086 22.15 6.36211 22.225L15.3996 27.4563C15.5496 27.55 15.7559 27.5875 15.9809 27.5875C16.2059 27.5875 16.4121 27.5313 16.5621 27.4563L25.5621 22.225C25.8809 22.0375 26.1059 21.5688 26.1059 21.2125V10.7688C26.1059 10.6 26.0871 10.4125 25.9934 10.2438L6.00586 21.8688Z" fill="#68217A"/>
<path d="M19.9937 18.2687C19.2062 19.6562 17.7062 20.5938 16 20.5938C13.4687 20.5938 11.4062 18.5312 11.4062 16C11.4062 13.4688 13.4687 11.4062 16 11.4062C17.7062 11.4062 19.2062 12.3438 19.9937 13.75L22.4312 12.3438C21.1562 10.1125 18.7562 8.59375 16 8.59375C11.9125 8.59375 8.59375 11.9125 8.59375 16C8.59375 20.0875 11.9125 23.4062 16 23.4062C18.7375 23.4062 21.1375 21.9062 22.4125 19.6937L19.9937 18.2687ZM22.1875 16.4125L22.3562 15.6063H21.5687V14.725H22.525L22.75 13.5625H23.6687L23.4437 14.7062H24.1562L24.3812 13.5625H25.2812L25.0562 14.7062H25.5062V15.5875H24.8875L24.7187 16.3937H25.5062V17.275H24.55L24.325 18.4H23.4062L23.6312 17.275H22.9187L22.6937 18.4H21.7937L22.0187 17.275H21.5687V16.3937H22.1875V16.4125ZM23.0875 16.4125H23.8L23.9687 15.6063H23.2562L23.0875 16.4125Z" fill="white"/>
</svg>
