<svg width="32" height="32" viewBox="0 0 32 32" fill="none" xmlns="http://www.w3.org/2000/svg">
<path d="M0 6C0 2.68629 2.68629 0 6 0H26C29.3137 0 32 2.68629 32 6V26C32 29.3137 29.3137 32 26 32H6C2.68629 32 0 29.3137 0 26V6Z" fill="white"/>
<g clip-path="url(#clip0_108_389)">
<path d="M15.989 28.6273L8.6637 26.5937L7.03125 8.2843H24.9687L23.3345 26.5909L15.989 28.6273Z" fill="#264DE4"/>
<path d="M21.9356 25.4252L23.332 9.78137H16V27.0707L21.9356 25.4252Z" fill="#2965F1"/>
<path d="M10.7736 16.572L10.9748 18.8176H16V16.572H10.7736ZM10.3691 12.027L10.5733 14.2725H16V12.027H10.3691ZM16 22.404L15.9901 22.4067L13.4893 21.7314L13.3294 19.9404H11.0751L11.3897 23.4663L15.9896 24.7432L16 24.7404V22.404Z" fill="#EBEBEB"/>
<path d="M11.2529 3.30859H13.9726V4.44597H12.3903V5.58334H13.9728V6.72065H11.2529V3.30859ZM14.5166 3.30859H17.2364V4.29761H15.654V4.4954H17.2364V6.77015H14.5167V5.73156H16.0991V5.53377H14.5166L14.5166 3.30859ZM17.7804 3.30859H20.5001V4.29761H18.9178V4.4954H20.5001V6.77015H17.7804V5.73156H19.3628V5.53377H17.7805L17.7804 3.30859Z" fill="black"/>
<path d="M21.212 16.572L21.6174 12.027H15.9923V14.2725H19.1565L18.9521 16.572H15.9923V18.8176H18.7574L18.4967 21.73L15.9922 22.4059V24.7422L20.5958 23.4663L20.6295 23.0869L21.1573 17.175L21.212 16.572Z" fill="white"/>
</g>
<defs>
<clipPath id="clip0_108_389">
<rect width="18" height="25.3828" fill="white" transform="translate(7 3.30859)"/>
</clipPath>
</defs>
</svg>
