<svg width="32" height="32" viewBox="0 0 32 32" fill="none" xmlns="http://www.w3.org/2000/svg">
<path d="M0 6C0 2.68629 2.68629 0 6 0H26C29.3137 0 32 2.68629 32 6V26C32 29.3137 29.3137 32 26 32H6C2.68629 32 0 29.3137 0 26V6Z" fill="white"/>
<g clip-path="url(#clip0_108_827)">
<path d="M12.1504 20.9221H19.8497C21.9757 20.9221 23.6993 22.6457 23.6993 24.7717C23.6993 26.8978 21.9757 28.6214 19.8497 28.6214H12.1504C10.0243 28.6214 8.30078 26.8978 8.30078 24.7717C8.30078 22.6457 10.0243 20.9221 12.1504 20.9221Z" fill="#1AD1A5"/>
<path d="M16 19.0743C20.2522 19.0743 23.6993 15.6272 23.6993 11.375C23.6993 7.12285 20.2522 3.67578 16 3.67578C11.7479 3.67578 8.30078 7.12285 8.30078 11.375C8.30078 15.6272 11.7479 19.0743 16 19.0743Z" fill="white"/>
<path d="M16 3.375C20.4183 3.375 24 6.95675 24 11.375C24 15.7933 20.4183 19.375 16 19.375C11.5817 19.375 8 15.7933 8 11.375C8 6.95675 11.5817 3.375 16 3.375ZM16 3.67575C11.7478 3.67575 8.30075 7.12281 8.30075 11.375C8.30075 15.6272 11.7478 19.0743 16 19.0743C20.2522 19.0743 23.6993 15.6272 23.6993 11.375C23.6993 7.12281 20.2522 3.67575 16 3.67575Z" fill="black" fill-opacity="0.2"/>
<path d="M16 14.8243C17.905 14.8243 19.4493 13.28 19.4493 11.375C19.4493 9.47006 17.905 7.92578 16 7.92578C14.0951 7.92578 12.5508 9.47006 12.5508 11.375C12.5508 13.28 14.0951 14.8243 16 14.8243Z" fill="#FF9903"/>
</g>
<defs>
<clipPath id="clip0_108_827">
<rect width="16" height="25.25" fill="white" transform="translate(8 3.375)"/>
</clipPath>
</defs>
</svg>
