<svg width="32" height="32" viewBox="0 0 32 32" fill="none" xmlns="http://www.w3.org/2000/svg">
<path d="M0 6C0 2.68629 2.68629 0 6 0H26C29.3137 0 32 2.68629 32 6V26C32 29.3137 29.3137 32 26 32H6C2.68629 32 0 29.3137 0 26V6Z" fill="white"/>
<g clip-path="url(#clip0_108_374)">
<path d="M10.6002 10.5438L9.04395 8.98755V20.1813L9.0627 20.7063C9.0627 20.95 9.1002 21.2313 9.19395 21.5125L21.4939 25.8438L24.5502 24.4938L10.6002 10.5438Z" fill="#00C4B3"/>
<path d="M24.5502 24.4937L21.4939 25.8437L9.23145 21.5125C9.4752 22.4125 9.98145 23.4062 10.5439 23.9875L14.5377 27.9625L23.4627 27.9812L24.5502 24.4937Z" fill="#22D3C5"/>
<path d="M4.31916 16.2062C3.92541 16.6187 4.13166 17.5 4.75041 18.1562L7.50666 20.9313L9.23166 21.55C9.17541 21.2687 9.10041 20.9875 9.10041 20.7438L9.08166 20.2188L9.04416 9.00625M24.5504 24.4938L25.9004 21.4188L21.5879 9.11875C21.3067 9.0625 21.0254 9.00625 20.7817 8.9875L20.2379 8.96875L9.06291 8.9875" fill="#0075C9"/>
<path d="M24.5498 24.4938L27.8686 23.4063V14.275L24.0436 10.4313C23.4811 9.86877 22.4873 9.34377 21.5686 9.11877L25.8998 21.4188" fill="#00A8E1"/>
<path d="M20.9689 7.4125L18.1939 4.65625C17.5564 4.01875 16.6939 3.83125 16.2439 4.225L9.04395 8.9875H20.2002L20.7439 9.00625C20.9877 9.00625 21.2689 9.04375 21.5502 9.1375L20.9689 7.4125Z" fill="#00C4B3"/>
</g>
<defs>
<clipPath id="clip0_108_374">
<rect width="24" height="24" fill="white" transform="translate(4 4)"/>
</clipPath>
</defs>
</svg>
