<svg width="32" height="32" viewBox="0 0 32 32" fill="none" xmlns="http://www.w3.org/2000/svg">
<path d="M0 6C0 2.68629 2.68629 0 6 0H26C29.3137 0 32 2.68629 32 6V26C32 29.3137 29.3137 32 26 32H6C2.68629 32 0 29.3137 0 26V6Z" fill="white"/>
<g clip-path="url(#clip0_108_418)">
<path d="M27.5046 13.9372C26.9641 13.5622 25.7256 13.4216 24.7573 13.6091C24.6448 12.6716 24.1269 11.8514 23.2261 11.1248L22.7083 10.7498L22.3479 11.2889C21.8976 11.992 21.6724 12.9764 21.7399 13.9139C21.7624 14.2419 21.875 14.8278 22.2128 15.3435C21.8976 15.531 21.2445 15.7653 20.3889 15.7653H4.10826L4.06326 15.9528C3.90557 16.8903 3.90557 19.8198 5.75207 22.0698C7.14819 23.7806 9.21988 24.6478 11.9445 24.6478C17.8442 24.6478 22.2128 21.8118 24.262 16.6793C25.0726 16.7028 26.8065 16.6793 27.6848 14.9215C27.7073 14.8746 27.7523 14.7809 27.9099 14.4294L28 14.2419L27.5046 13.9372ZM17.1237 7.32812H14.6468V9.67178H17.1237V7.32812ZM17.1237 10.1405H14.6468V12.4842H17.1237V10.1405ZM14.1963 10.1405H11.7194V12.4842H14.1963V10.1405ZM11.269 10.1405H8.79201V12.4842H11.269V10.1405ZM8.34163 12.9529H5.86466V15.2966H8.34154L8.34163 12.9529ZM11.269 12.9529H8.79201V15.2966H11.269V12.9529ZM14.1963 12.9529H11.7194V15.2966H14.1963V12.9529ZM17.1238 12.9529H14.6467V15.2966H17.1238V12.9529ZM20.0511 12.9529H17.574V15.2966H20.0511V12.9529Z" fill="#2396ED"/>
</g>
<defs>
<clipPath id="clip0_108_418">
<rect width="24" height="17.3438" fill="white" transform="translate(4 7.32812)"/>
</clipPath>
</defs>
</svg>
