<svg width="32" height="32" viewBox="0 0 32 32" fill="none" xmlns="http://www.w3.org/2000/svg">
<path d="M0 6C0 2.68629 2.68629 0 6 0H26C29.3137 0 32 2.68629 32 6V26C32 29.3137 29.3137 32 26 32H6C2.68629 32 0 29.3137 0 26V6Z" fill="white"/>
<g clip-path="url(#clip0_108_574)">
<path d="M22.375 4H9.625C6.5184 4 4 6.5184 4 9.625V22.375C4 25.4816 6.5184 28 9.625 28H22.375C25.4816 28 28 25.4816 28 22.375V9.625C28 6.5184 25.4816 4 22.375 4Z" fill="#512BD4"/>
<path d="M6.25488 19.8384C6.04519 19.8384 5.86697 19.7698 5.72022 19.6327C5.57341 19.492 5.5 19.3249 5.5 19.1314C5.5 18.9345 5.57341 18.7657 5.72022 18.6249C5.86697 18.4843 6.04519 18.4139 6.25488 18.4139C6.46806 18.4139 6.64806 18.4842 6.79488 18.6249C6.94513 18.7656 7.02025 18.9344 7.02025 19.1314C7.02025 19.3249 6.94513 19.492 6.79488 19.6327C6.64806 19.7698 6.46806 19.8384 6.25488 19.8384ZM14.6375 19.7223H13.2746L9.68359 14.1613C9.59409 14.0231 9.51859 13.8764 9.45822 13.7233H9.42672C9.45466 13.8852 9.46863 14.2316 9.46863 14.7627V19.7223H8.26291V12.1562H9.715L13.1854 17.5855C13.3322 17.8106 13.4266 17.9654 13.4686 18.0498H13.4895C13.4545 17.8493 13.4371 17.5099 13.4371 17.0314V12.1562H14.6375V19.7223ZM20.5092 19.7223H16.2891V12.1562H20.3415V13.2221H17.5368V15.3642H20.1213V16.4247H17.5368V18.6618H20.5092V19.7223ZM26.5067 13.2221H24.3468V19.7223H23.0991V13.2221H20.9446V12.1562H26.5067V13.2221Z" fill="white"/>
</g>
<defs>
<clipPath id="clip0_108_574">
<rect width="24" height="24" fill="white" transform="translate(4 4)"/>
</clipPath>
</defs>
</svg>
