<svg width="32" height="32" viewBox="0 0 32 32" fill="none" xmlns="http://www.w3.org/2000/svg">
<path d="M0 6C0 2.68629 2.68629 0 6 0H26C29.3137 0 32 2.68629 32 6V26C32 29.3137 29.3137 32 26 32H6C2.68629 32 0 29.3137 0 26V6Z" fill="white"/>
<g clip-path="url(#clip0_108_587)">
<path d="M22.375 4H9.625C6.5184 4 4 6.5184 4 9.625V22.375C4 25.4816 6.5184 28 9.625 28H22.375C25.4816 28 28 25.4816 28 22.375V9.625C28 6.5184 25.4816 4 22.375 4Z" fill="#F4F2ED"/>
<path d="M25.375 21.1504C25.1021 21.2538 24.8007 21.2536 24.5279 21.1499C24.2552 21.0461 24.0298 20.846 23.8946 20.5874C23.0449 19.3155 22.1067 18.101 21.2049 16.8604L20.8139 16.3391C19.7401 17.7778 18.6662 19.1591 17.6863 20.5927C17.5586 20.8398 17.3455 21.0321 17.0866 21.1338C16.8277 21.2355 16.5406 21.2395 16.2789 21.1452L20.3083 15.7397L16.5603 10.8553C16.8301 10.7579 17.1253 10.7566 17.3959 10.8515C17.6666 10.9465 17.8962 11.132 18.046 11.3766C18.9165 12.6486 19.8809 13.8631 20.8399 15.1507C21.8043 13.8735 22.7582 12.6537 23.6496 11.3922C23.7779 11.1491 23.9912 10.9616 24.2488 10.8655C24.5064 10.7693 24.7903 10.7713 25.0466 10.871L23.5922 12.7997C22.9407 13.6598 22.2995 14.5251 21.6219 15.3643C21.5673 15.4132 21.5236 15.4731 21.4937 15.54C21.4638 15.6069 21.4483 15.6794 21.4483 15.7527C21.4483 15.826 21.4638 15.8985 21.4937 15.9654C21.5236 16.0323 21.5673 16.0921 21.6219 16.141C22.8677 17.7935 24.1031 19.4511 25.375 21.1504ZM6.625 15.6719C6.7345 15.1507 6.80219 14.5824 6.95341 14.0508C7.85519 10.845 11.5301 9.51048 14.0583 11.4966C15.5387 12.6591 15.9088 14.3063 15.8358 16.1619H7.49556C7.36 19.4772 9.75259 21.4789 12.8124 20.4572C13.3088 20.2797 13.7531 19.9813 14.1053 19.5891C14.4575 19.1968 14.7065 18.723 14.8297 18.2105C14.9913 17.6892 15.252 17.6006 15.7472 17.7518C15.6656 18.3863 15.4412 18.9942 15.0909 19.5296C14.7406 20.065 14.2735 20.514 13.7247 20.8429C12.8179 21.3388 11.7775 21.5353 10.7523 21.4043C9.72713 21.2732 8.76964 20.8213 8.01681 20.1131C7.27202 19.2757 6.82167 18.2175 6.7345 17.1002C6.7345 16.923 6.66672 16.7457 6.63025 16.5789C6.6268 16.2766 6.62505 15.9743 6.625 15.6719ZM7.50597 15.4478H15.0487C15.0017 13.0448 13.4849 11.3402 11.4624 11.3246C9.21053 11.2933 7.59981 12.9613 7.50072 15.4374L7.50597 15.4478Z" fill="#0F0F0F"/>
</g>
<defs>
<clipPath id="clip0_108_587">
<rect width="24" height="24" fill="white" transform="translate(4 4)"/>
</clipPath>
</defs>
</svg>
