<svg width="32" height="32" viewBox="0 0 32 32" fill="none" xmlns="http://www.w3.org/2000/svg">
<path d="M0 6C0 2.68629 2.68629 0 6 0H26C29.3137 0 32 2.68629 32 6V26C32 29.3137 29.3137 32 26 32H6C2.68629 32 0 29.3137 0 26V6Z" fill="white"/>
<g clip-path="url(#clip0_108_258)">
<path d="M12.5312 28.1875C14.7625 28.1875 16.5625 26.3875 16.5625 24.1562V20.125H12.5312C10.3 20.125 8.5 21.925 8.5 24.1562C8.5 26.3875 10.3 28.1875 12.5312 28.1875Z" fill="#0ACF83"/>
<path d="M8.5 16.0938C8.5 13.8625 10.3 12.0625 12.5312 12.0625H16.5625V20.125H12.5312C10.3 20.125 8.5 18.325 8.5 16.0938Z" fill="#A259FF"/>
<path d="M8.5 8.03125C8.5 5.8 10.3 4 12.5312 4H16.5625V12.0625H12.5312C10.3 12.0625 8.5 10.2625 8.5 8.03125Z" fill="#F24E1E"/>
<path d="M16.5625 4H20.5938C22.825 4 24.625 5.8 24.625 8.03125C24.625 10.2625 22.825 12.0625 20.5938 12.0625H16.5625V4Z" fill="#FF7262"/>
<path d="M24.625 16.0938C24.625 18.325 22.825 20.125 20.5938 20.125C18.3625 20.125 16.5625 18.325 16.5625 16.0938C16.5625 13.8625 18.3625 12.0625 20.5938 12.0625C22.825 12.0625 24.625 13.8625 24.625 16.0938Z" fill="#1ABCFE"/>
</g>
<defs>
<clipPath id="clip0_108_258">
<rect width="24" height="24" fill="white" transform="translate(4 4)"/>
</clipPath>
</defs>
</svg>
