<svg width="32" height="32" viewBox="0 0 32 32" fill="none" xmlns="http://www.w3.org/2000/svg">
<path d="M0 6C0 2.68629 2.68629 0 6 0H26C29.3137 0 32 2.68629 32 6V26C32 29.3137 29.3137 32 26 32H6C2.68629 32 0 29.3137 0 26V6Z" fill="white"/>
<g clip-path="url(#clip0_108_594)">
<path d="M7.27637 23.3642L10.2304 4.46157C10.2481 4.3486 10.3009 4.24404 10.3812 4.16267C10.4615 4.0813 10.5654 4.02722 10.6781 4.00807C10.7908 3.98892 10.9067 4.00568 11.0094 4.05596C11.1121 4.10625 11.1964 4.18753 11.2504 4.28832L14.3056 9.98644L15.5232 7.66782C15.5695 7.57987 15.6389 7.50623 15.724 7.45487C15.8091 7.4035 15.9066 7.37635 16.006 7.37635C16.1054 7.37635 16.2029 7.4035 16.288 7.45487C16.3731 7.50623 16.4425 7.57987 16.4888 7.66782L24.7332 23.3642H7.27637Z" fill="#FFA000"/>
<path d="M17.4818 16.0009L14.3041 9.98364L7.27637 23.3642L17.4818 16.0009Z" fill="#F57C00"/>
<path d="M24.7332 23.3643L22.4706 9.36331C22.4539 9.26461 22.4103 9.17242 22.3447 9.09682C22.2791 9.02122 22.194 8.96513 22.0986 8.93468C22.0033 8.90431 21.9014 8.90074 21.8042 8.92435C21.707 8.94796 21.6181 8.99785 21.5474 9.06856L7.27637 23.3641L15.1729 27.7925C15.4168 27.9286 15.6915 28.0001 15.9707 28.0001C16.25 28.0001 16.5247 27.9286 16.7686 27.7925L24.7332 23.3643Z" fill="#FFCA28"/>
<path d="M22.4704 9.36322C22.4537 9.26452 22.4101 9.17233 22.3445 9.09673C22.2789 9.02113 22.1938 8.96504 22.0984 8.93459C22.0031 8.9042 21.9013 8.90059 21.8041 8.92417C21.7068 8.94775 21.618 8.9976 21.5472 9.06828L18.7146 11.9083L16.4873 7.66784C16.441 7.57989 16.3715 7.50626 16.2865 7.45489C16.2014 7.40353 16.1039 7.37638 16.0045 7.37638C15.9051 7.37638 15.8076 7.40353 15.7225 7.45489C15.6374 7.50626 15.568 7.57989 15.5217 7.66784L14.304 9.98628L11.2489 4.28834C11.1948 4.18741 11.1104 4.10605 11.0075 4.05578C10.9047 4.0055 10.7886 3.98886 10.6757 4.00822C10.563 4.02757 10.4591 4.08188 10.3789 4.16347C10.2987 4.24507 10.2461 4.34982 10.2287 4.46291L7.27616 23.3642H7.2666L7.27598 23.3751L7.35379 23.4133L21.543 9.20759C21.6138 9.13652 21.7028 9.08632 21.8002 9.06252C21.8976 9.03872 21.9997 9.04223 22.0953 9.07267C22.1909 9.10311 22.2762 9.1593 22.3419 9.23507C22.4076 9.31083 22.4512 9.40325 22.4678 9.50215L24.7112 23.3777L24.733 23.364L22.4704 9.36322ZM7.30204 23.3383L10.23 4.59659C10.2474 4.48344 10.3 4.37863 10.3802 4.297C10.4605 4.21537 10.5644 4.16104 10.6772 4.14172C10.7901 4.12238 10.9062 4.13905 11.0091 4.18936C11.1119 4.23967 11.1964 4.32107 11.2504 4.42203L14.3052 10.1202L15.523 7.80153C15.5693 7.71358 15.6387 7.63995 15.7238 7.58858C15.8089 7.53722 15.9064 7.51007 16.0058 7.51007C16.1052 7.51007 16.2027 7.53722 16.2878 7.58858C16.3729 7.63995 16.4423 7.71358 16.4886 7.80153L18.6707 11.9518L7.30166 23.3383H7.30204Z" fill="white" fill-opacity="0.2"/>
<path opacity="0.2" d="M16.7689 27.6587C16.5251 27.7948 16.2504 27.8663 15.9711 27.8663C15.6918 27.8663 15.4172 27.7948 15.1733 27.6587L7.29549 23.2431L7.27637 23.3644L15.1729 27.7913C15.4168 27.9274 15.6914 27.9989 15.9707 27.9989C16.25 27.9989 16.5247 27.9274 16.7686 27.7913L24.7336 23.3644L24.7129 23.2388L16.7686 27.6591L16.7689 27.6587Z" fill="#A52714"/>
</g>
<defs>
<clipPath id="clip0_108_594">
<rect width="24" height="24" fill="white" transform="translate(4 4)"/>
</clipPath>
</defs>
</svg>
