<svg width="32" height="32" viewBox="0 0 32 32" fill="none" xmlns="http://www.w3.org/2000/svg">
<path d="M0 6C0 2.68629 2.68629 0 6 0H26C29.3137 0 32 2.68629 32 6V26C32 29.3137 29.3137 32 26 32H6C2.68629 32 0 29.3137 0 26V6Z" fill="white"/>
<g clip-path="url(#clip0_108_394)">
<path d="M27.3877 14.9459L17.0535 4.61199C16.4587 4.01687 15.4935 4.01687 14.8978 4.61199L12.752 6.75812L15.4741 9.48024C16.107 9.26668 16.8322 9.40993 17.3364 9.91412C17.8432 10.4215 17.9853 11.1529 17.7665 11.7878L20.39 14.4115C21.0247 14.1927 21.7573 14.3341 22.2639 14.8418C22.9726 15.55 22.9726 16.6981 22.2639 17.4066C22.0955 17.5751 21.8955 17.7088 21.6754 17.8C21.4553 17.8912 21.2194 17.9381 20.9811 17.9381C20.7429 17.9381 20.5069 17.8912 20.2868 17.8C20.0667 17.7088 19.8668 17.5751 19.6983 17.4066C19.4453 17.1534 19.2729 16.831 19.2027 16.48C19.1324 16.129 19.1676 15.765 19.3036 15.4339L16.8571 12.9874L16.8568 19.4264C17.0343 19.5138 17.1963 19.6295 17.3366 19.7691C18.045 20.4773 18.045 21.625 17.3366 22.3347C16.628 23.0429 15.4796 23.0429 14.7718 22.3347C14.0634 21.6252 14.0634 20.4775 14.7718 19.7691C14.9416 19.5993 15.1435 19.4649 15.3656 19.3735V12.8749C15.1432 12.7839 14.9413 12.6494 14.7718 12.4791C14.2351 11.9429 14.106 11.1554 14.3812 10.4961L11.6975 7.81243L4.61151 14.8981C4.32564 15.184 4.16504 15.5718 4.16504 15.9762C4.16504 16.3805 4.32564 16.7683 4.61151 17.0543L14.946 27.3882C15.5411 27.9833 16.506 27.9833 17.102 27.3882L27.3879 17.1023C27.6737 16.8163 27.8342 16.4284 27.8342 16.024C27.8342 15.6197 27.6736 15.2319 27.3877 14.9459Z" fill="#F34F29"/>
</g>
<defs>
<clipPath id="clip0_108_394">
<rect width="24" height="24" fill="white" transform="translate(4 4)"/>
</clipPath>
</defs>
</svg>
