<svg width="32" height="32" viewBox="0 0 32 32" fill="none" xmlns="http://www.w3.org/2000/svg">
<path d="M0 6C0 2.68629 2.68629 0 6 0H26C29.3137 0 32 2.68629 32 6V26C32 29.3137 29.3137 32 26 32H6C2.68629 32 0 29.3137 0 26V6Z" fill="white"/>
<g clip-path="url(#clip0_108_384)">
<path d="M23.9717 9.1416L22.5192 25.4141L15.9898 27.2242L9.47841 25.4166L8.02734 9.1416H23.9717Z" fill="#E44D26"/>
<path d="M16 25.8406L21.2761 24.3779L22.5173 10.4723H16V25.8406Z" fill="#F16529"/>
<path d="M13.1766 14.4644H16.0003V12.4684H10.9951L11.0429 13.0039L11.5335 18.5045H16.0003V16.5084H13.359L13.1766 14.4644ZM13.6264 19.5026H11.6227L11.9023 22.6367L15.9911 23.7717L16.0003 23.7692V21.6924L15.9916 21.6948L13.7686 21.0945L13.6264 19.5026Z" fill="#EBEBEB"/>
<path d="M9.51172 4.71875H10.5261V5.72094H11.454V4.71875H12.4685V7.75362H11.4541V6.73738H10.5262V7.75362H9.51178L9.51172 4.71875ZM13.8023 5.72519H12.9095V4.71875H15.7103V5.72519H14.8169V7.75362H13.8025V5.72519H13.8023ZM16.1548 4.71875H17.2125L17.8632 5.78513L18.5132 4.71875H19.5713V7.75362H18.561V6.24937L17.8632 7.32844H17.8457L17.1473 6.24937V7.75362H16.1548V4.71875ZM20.0761 4.71875H21.0908V6.7505H22.5173V7.75362H20.076L20.0761 4.71875Z" fill="black"/>
<path d="M15.9932 18.5045H18.4512L18.2194 21.0933L15.9932 21.6941V23.7708L20.0852 22.6367L20.1152 22.2994L20.5844 17.0444L20.633 16.5084H15.9932V18.5045ZM15.9932 14.4596V14.4644H20.8147L20.8547 14.0158L20.9457 13.0039L20.9934 12.4684H15.9932V14.4596Z" fill="white"/>
</g>
<defs>
<clipPath id="clip0_108_384">
<rect width="16" height="22.5625" fill="white" transform="translate(8 4.71875)"/>
</clipPath>
</defs>
</svg>
