<svg width="32" height="32" viewBox="0 0 32 32" fill="none" xmlns="http://www.w3.org/2000/svg">
<path d="M0 6C0 2.68629 2.68629 0 6 0H26C29.3137 0 32 2.68629 32 6V26C32 29.3137 29.3137 32 26 32H6C2.68629 32 0 29.3137 0 26V6Z" fill="white"/>
<g clip-path="url(#clip0_108_280)">
<path d="M22.375 4H9.625C6.5184 4 4 6.5184 4 9.625V22.375C4 25.4816 6.5184 28 9.625 28H22.375C25.4816 28 28 25.4816 28 22.375V9.625C28 6.5184 25.4816 4 22.375 4Z" fill="#F0DB4F"/>
<path d="M10.3106 24.0562L12.1472 22.9447C12.5016 23.5729 12.8239 24.1045 13.597 24.1045C14.3381 24.1045 14.8054 23.8146 14.8054 22.687V15.0184H17.0608V22.7188C17.0608 25.0548 15.6915 26.1181 13.6937 26.1181C11.8895 26.1181 10.8422 25.1837 10.3105 24.056M18.2859 23.8145L20.1222 22.7513C20.6057 23.5407 21.234 24.1207 22.3455 24.1207C23.2801 24.1207 23.876 23.6534 23.876 23.009C23.876 22.2357 23.2638 21.9618 22.2327 21.5109L21.669 21.2691C20.0418 20.5765 18.9624 19.7065 18.9624 17.8699C18.9624 16.1783 20.2512 14.8894 22.2651 14.8894C23.6989 14.8894 24.73 15.3889 25.471 16.6938L23.7149 17.8215C23.3282 17.1288 22.9095 16.855 22.2651 16.855C21.6045 16.855 21.1856 17.2738 21.1856 17.8215C21.1856 18.4981 21.6045 18.7721 22.5711 19.191L23.1349 19.4326C25.052 20.2543 26.1314 21.0919 26.1314 22.9767C26.1314 25.0068 24.5365 26.1183 22.3939 26.1183C20.2996 26.1183 18.9463 25.1195 18.2859 23.8145Z" fill="#323330"/>
</g>
<defs>
<clipPath id="clip0_108_280">
<rect width="24" height="24" fill="white" transform="translate(4 4)"/>
</clipPath>
</defs>
</svg>
