<svg width="32" height="32" viewBox="0 0 32 32" fill="none" xmlns="http://www.w3.org/2000/svg">
<path d="M0 6C0 2.68629 2.68629 0 6 0H26C29.3137 0 32 2.68629 32 6V26C32 29.3137 29.3137 32 26 32H6C2.68629 32 0 29.3137 0 26V6Z" fill="white"/>
<path d="M15.2498 13L12.3398 6.25H27.2498L24.2498 13" stroke="#ED8796" stroke-linecap="round" stroke-linejoin="round"/>
<path d="M22.75 13L19.75 9.25L16.75 13M18.25 15.25H21.25M24.25 17.5C25.75 19 23.5 21.625 19.75 23.5C16 25.375 13 25.75 10.75 25.75C7.75 25.75 6.25 24.25 6.25 21.4C6.25 20.05 7 19 8.5 18.25" stroke="#ED8796" stroke-linecap="round" stroke-linejoin="round"/>
<path d="M15.25 17.5C15.25 19.75 12.25 21.25 10.75 21.25C9.25 21.25 8.5 20.875 8.5 18.25" stroke="#ED8796" stroke-linecap="round" stroke-linejoin="round"/>
<path d="M10.75 16.75C10.75 17.1478 10.592 17.5294 10.3107 17.8107C10.0294 18.092 9.64782 18.25 9.25 18.25C8.85218 18.25 8.47064 18.092 8.18934 17.8107C7.90804 17.5294 7.75 17.1478 7.75 16.75C7.75 16.3522 7.90804 15.9706 8.18934 15.6893C8.47064 15.408 8.85218 15.25 9.25 15.25C9.64782 15.25 10.0294 15.408 10.3107 15.6893C10.592 15.9706 10.75 16.3522 10.75 16.75ZM18.25 15.25C18.25 15.8467 18.0129 16.419 17.591 16.841C17.169 17.2629 16.5967 17.5 16 17.5C15.4033 17.5 14.831 17.2629 14.409 16.841C13.9871 16.419 13.75 15.8467 13.75 15.25C13.75 14.6533 13.9871 14.081 14.409 13.659C14.831 13.2371 15.4033 13 16 13C16.5967 13 17.169 13.2371 17.591 13.659C18.0129 14.081 18.25 14.6533 18.25 15.25ZM25.75 15.25C25.75 15.8467 25.5129 16.419 25.091 16.841C24.669 17.2629 24.0967 17.5 23.5 17.5C22.9033 17.5 22.331 17.2629 21.909 16.841C21.4871 16.419 21.25 15.8467 21.25 15.25C21.25 14.6533 21.4871 14.081 21.909 13.659C22.331 13.2371 22.9033 13 23.5 13C24.0967 13 24.669 13.2371 25.091 13.659C25.5129 14.081 25.75 14.6533 25.75 15.25Z" stroke="#ED8796" stroke-linecap="round" stroke-linejoin="round"/>
</svg>
