<svg width="32" height="32" viewBox="0 0 32 32" fill="none" xmlns="http://www.w3.org/2000/svg">
<path d="M0 6C0 2.68629 2.68629 0 6 0H26C29.3137 0 32 2.68629 32 6V26C32 29.3137 29.3137 32 26 32H6C2.68629 32 0 29.3137 0 26V6Z" fill="white"/>
<path fill-rule="evenodd" clip-rule="evenodd" d="M20.5076 12.0272C20.8085 12.8978 21.0253 13.7865 21.0965 14.7077C21.185 15.8505 21.1445 16.9853 20.9036 18.1093C20.897 18.1403 20.8831 18.1693 20.8728 18.1993C20.7973 18.1995 20.7202 18.1902 20.6463 18.2016C20.0221 18.2997 19.3985 18.4013 18.7749 18.5023C18.1303 18.6068 17.4847 18.7071 16.8412 18.8187C16.6132 18.858 16.331 18.811 16.239 19.1263C16.2363 19.135 16.2101 19.1365 16.1949 19.1413L16.226 17.2568L16.1943 12.7095L16.4947 12.658C16.986 12.5775 17.4772 12.496 17.9688 12.4178C18.5555 12.3246 19.1428 12.234 19.7298 12.1431C19.9888 12.1028 20.2481 12.0658 20.5076 12.0272Z" fill="#439934"/>
<path fill-rule="evenodd" clip-rule="evenodd" d="M15.5745 24.6351C15.2576 24.3626 14.9297 24.1022 14.6259 23.8157C12.9915 22.2741 11.796 20.4596 11.2073 18.2721C11.0451 17.67 10.9369 17.0582 10.9022 16.4361C10.8778 16.0007 10.8426 15.5614 10.8733 15.1283C10.9553 13.9763 11.1218 12.8353 11.4596 11.7257L11.4782 11.6998C11.511 11.7435 11.5583 11.7821 11.5749 11.8315C11.9047 12.8027 12.2323 13.7746 12.5578 14.7473C13.5812 17.8035 14.6033 20.8605 15.6283 23.916C15.6484 23.9756 15.7003 24.0246 15.7376 24.0784L15.5745 24.6351Z" fill="#45A538"/>
<path fill-rule="evenodd" clip-rule="evenodd" d="M20.5069 12.0273C20.2474 12.0659 19.9879 12.1028 19.729 12.1428C19.1419 12.2337 18.5547 12.3243 17.968 12.4174C17.4764 12.4956 16.9851 12.5772 16.4939 12.6576L16.1935 12.7092L16.1913 12.5133C16.1813 12.3522 16.1643 12.1913 16.1624 12.0303C16.1494 11.0031 16.1414 9.976 16.1286 8.94888C16.1208 8.30594 16.1089 7.66319 16.0958 7.02044C16.0878 6.62106 16.0791 6.2215 16.0611 5.82269C16.0514 5.60838 16.0169 5.39519 16.0028 5.18088C15.9949 5.05769 16.0058 4.93356 16.0083 4.80981C16.1614 5.10663 16.3113 5.40569 16.4688 5.70025C16.7176 6.166 17.1139 6.50913 17.4708 6.88356C18.8813 8.36331 19.8828 10.0838 20.5069 12.0273Z" fill="#46A037"/>
<path fill-rule="evenodd" clip-rule="evenodd" d="M16.1938 19.1412C16.209 19.1363 16.2354 19.1348 16.2378 19.1262C16.3299 18.8108 16.6121 18.8579 16.8401 18.8185C17.4836 18.7071 18.1292 18.6066 18.7738 18.5022C19.3974 18.4011 20.021 18.2995 20.6452 18.2015C20.7191 18.1898 20.7962 18.1994 20.8717 18.1992C20.7551 18.6155 20.6632 19.0407 20.5153 19.4455C20.3473 19.9047 20.144 20.3528 19.9282 20.7921C19.6054 21.4475 19.2055 22.062 18.737 22.6227C18.3772 23.0555 17.9762 23.4554 17.5742 23.8505C17.352 24.0689 17.09 24.2468 16.8463 24.4431L16.7831 24.4L16.5555 24.2054L16.32 23.6892C16.1591 23.087 16.0713 22.4677 16.0586 21.8446L16.0629 21.7394L16.095 21.2845C16.1057 21.1293 16.1199 20.9742 16.1265 20.8186C16.1507 20.2595 16.1717 19.7003 16.1938 19.1412Z" fill="#409433"/>
<path fill-rule="evenodd" clip-rule="evenodd" d="M16.1947 19.1412C16.1725 19.7003 16.1515 20.2594 16.1277 20.8187C16.1212 20.9744 16.1069 21.1294 16.0962 21.2847L15.9528 21.3389C15.6342 20.401 15.3155 19.4731 15.0037 18.5427C14.488 17.0035 13.9786 15.4619 13.4637 13.9223C13.0479 12.6796 12.6291 11.438 12.2075 10.1972C12.1878 10.1391 12.1312 10.0937 12.0918 10.0424L13.0098 8.35449C13.0413 8.40924 13.0829 8.46043 13.1028 8.5193C13.528 9.77595 13.951 11.0333 14.3718 12.2914C14.9185 13.9283 15.4619 15.5665 16.0083 17.2036C16.03 17.269 16.066 17.3294 16.1004 17.4027L16.226 17.2564L16.1947 19.1412Z" fill="#4FAA41"/>
<path fill-rule="evenodd" clip-rule="evenodd" d="M12.092 10.0426C12.1314 10.094 12.1878 10.1394 12.2077 10.1975C12.6293 11.4382 13.0481 12.6799 13.464 13.9225C13.9788 15.4621 14.4883 17.0037 15.0039 18.5429C15.3155 19.4731 15.6343 20.4012 15.953 21.3391L16.0965 21.2849L16.0644 21.7398L16.0353 21.8446C15.9855 22.3426 15.9435 22.8417 15.8827 23.3386C15.8521 23.5876 15.7873 23.8321 15.738 24.0787C15.7008 24.0249 15.6487 23.9759 15.6286 23.9163C14.6036 20.8606 13.5815 17.8038 12.5581 14.7475C12.2326 13.7749 11.9049 12.803 11.5753 11.8317C11.5586 11.7824 11.5115 11.7438 11.4785 11.7001L12.092 10.0426Z" fill="#4AA73C"/>
<path fill-rule="evenodd" clip-rule="evenodd" d="M16.225 17.2566L16.0994 17.4028C16.065 17.3295 16.029 17.269 16.0073 17.2037C15.4611 15.5666 14.9175 13.9285 14.3708 12.2916C13.95 11.0335 13.527 9.7761 13.1018 8.51946C13.0821 8.46058 13.0405 8.40921 13.0088 8.35464L14.1441 6.86121C14.1799 6.90902 14.2309 6.95158 14.2495 7.00539C14.5645 7.92814 14.8772 8.85177 15.1875 9.77627C15.4776 10.6395 15.7634 11.5041 16.0568 12.3662C16.0765 12.424 16.1449 12.4648 16.1907 12.5136L16.1929 12.7095C16.2038 14.225 16.2145 15.7407 16.225 17.2566Z" fill="#57AE47"/>
<path fill-rule="evenodd" clip-rule="evenodd" d="M16.1911 12.5132C16.1453 12.4644 16.0769 12.4236 16.0572 12.3658C15.7638 11.5037 15.478 10.6391 15.188 9.77588C14.8776 8.85151 14.5649 7.92788 14.2499 7.00501C14.2313 6.9512 14.1803 6.90863 14.1445 6.86082C14.5137 6.49932 14.8715 6.12488 15.2555 5.78007C15.5969 5.4737 15.8714 5.1452 15.884 4.66107C15.8845 4.64101 15.895 4.62095 15.9112 4.5647L16.0085 4.80957C16.006 4.93351 15.995 5.05745 16.003 5.18063C16.0171 5.39495 16.0516 5.60813 16.0613 5.82245C16.0793 6.22126 16.088 6.62082 16.096 7.0202C16.109 7.66295 16.1208 8.3057 16.1288 8.94863C16.1414 9.97576 16.1497 11.0029 16.1626 12.03C16.1641 12.1914 16.181 12.3521 16.1911 12.5132Z" fill="#60B24F"/>
<path fill-rule="evenodd" clip-rule="evenodd" d="M15.7373 24.0785C15.7867 23.8319 15.8515 23.5872 15.8821 23.3384C15.943 22.8417 15.9848 22.3424 16.0347 21.8444L16.0471 21.8425L16.0595 21.8446C16.0722 22.4677 16.16 23.0871 16.3208 23.6892C16.2878 23.7327 16.2412 23.7715 16.2237 23.8207C16.0874 24.205 15.959 24.5924 15.8219 24.9768C15.8032 25.0293 15.751 25.0702 15.7143 25.1163L15.5742 24.6352L15.7373 24.0785Z" fill="#A9AA88"/>
<path fill-rule="evenodd" clip-rule="evenodd" d="M15.7139 25.1164C15.7506 25.0703 15.8029 25.0294 15.8215 24.9769C15.9586 24.5925 16.0872 24.2053 16.2233 23.8208C16.2407 23.7716 16.2872 23.7328 16.3204 23.6893L16.5557 24.2057C16.5092 24.2717 16.4451 24.3311 16.4192 24.4046L15.9685 25.7282C15.9499 25.7813 15.8866 25.8188 15.8442 25.8636L15.7139 25.1164Z" fill="#B6B598"/>
<path fill-rule="evenodd" clip-rule="evenodd" d="M15.8447 25.8634C15.8873 25.8188 15.9505 25.7811 15.969 25.7281L16.4198 24.4045C16.4455 24.3312 16.5098 24.2716 16.5563 24.2056L16.7841 24.4C16.674 24.5088 16.6129 24.6344 16.6497 24.7932L16.5805 25.0197C16.549 25.0585 16.5034 25.0923 16.4879 25.1367C16.3305 25.5873 16.1804 26.0403 16.0219 26.4908C16.0019 26.548 15.9462 26.5928 15.9068 26.6431C15.8863 26.3832 15.8656 26.1233 15.8447 25.8634Z" fill="#C2C1A7"/>
<path fill-rule="evenodd" clip-rule="evenodd" d="M15.907 26.643C15.9462 26.5926 16.0019 26.5478 16.0221 26.4908C16.1806 26.0404 16.3308 25.5874 16.4881 25.1367C16.5036 25.0924 16.549 25.0585 16.5807 25.0197L16.4853 26.0593C16.4598 26.0888 16.4228 26.1145 16.4106 26.1488C16.3028 26.4514 16.2012 26.7563 16.093 27.0589C16.0707 27.1213 16.028 27.1765 15.9946 27.2348C15.965 27.196 15.9119 27.1585 15.9095 27.118C15.8999 26.9603 15.9065 26.8015 15.907 26.643Z" fill="#CECDB7"/>
<path fill-rule="evenodd" clip-rule="evenodd" d="M15.9941 27.2348C16.0275 27.1763 16.0703 27.1211 16.0926 27.0589C16.201 26.7565 16.3024 26.4516 16.4102 26.1488C16.4224 26.1145 16.4595 26.089 16.4848 26.0593L16.4871 26.7418L16.2587 27.3276L15.9941 27.2348Z" fill="#DBDAC7"/>
<path fill-rule="evenodd" clip-rule="evenodd" d="M16.2588 27.3278L16.4872 26.7421L16.5342 27.4351L16.2588 27.3278Z" fill="#EBE9DC"/>
<path fill-rule="evenodd" clip-rule="evenodd" d="M16.6494 24.7933C16.6126 24.6345 16.6736 24.5087 16.7838 24.4001L16.847 24.4433L16.6494 24.7933Z" fill="#CECDB7"/>
<path fill-rule="evenodd" clip-rule="evenodd" d="M16.0589 21.8447L16.0466 21.8427L16.0342 21.8446L16.0632 21.7397L16.0589 21.8447Z" fill="#4FAA41"/>
</svg>
