<svg width="32" height="32" viewBox="0 0 32 32" fill="none" xmlns="http://www.w3.org/2000/svg">
<path d="M0 6C0 2.68629 2.68629 0 6 0H26C29.3137 0 32 2.68629 32 6V26C32 29.3137 29.3137 32 26 32H6C2.68629 32 0 29.3137 0 26V6Z" fill="white"/>
<g clip-path="url(#clip0_108_411)">
<path d="M11.1395 18.6155L11.8689 20.982C12.0328 21.5194 12.1011 21.8945 12.0738 22.1083C12.4727 21.0399 12.7514 19.8756 12.91 18.6155H13.787C13.4098 20.667 12.9125 22.1578 12.2951 23.0878C11.8141 23.8045 11.2871 24.1628 10.7133 24.1628C10.5603 24.1628 10.3716 24.1166 10.1478 24.0248V23.5303C10.2572 23.5463 10.3855 23.5549 10.533 23.5549C10.8007 23.5548 11.0165 23.4807 11.1806 23.3326C11.3772 23.1522 11.4756 22.9494 11.4756 22.7246C11.4756 22.5712 11.3988 22.2562 11.2461 21.7798L10.2298 18.6155H11.1395ZM5.55733 17.1609L6.89327 21.237H6.90152L8.24566 17.1609H9.34384C9.58431 19.1823 9.72634 21.0319 9.76994 22.7084H8.84406C8.81144 21.1412 8.72131 19.6675 8.57369 18.2871H8.56563L7.15572 22.7084H6.45062L5.04925 18.2871H5.041C4.93709 19.6128 4.87153 21.0865 4.84431 22.7084H4C4.05456 20.7359 4.19111 18.8869 4.40964 17.1609H5.55733Z" fill="#00758F"/>
<path d="M20.5235 17.0785C21.9605 17.0785 22.679 17.9966 22.679 19.8319C22.679 20.8292 22.463 21.5826 22.0312 22.0915C21.9534 22.1845 21.8674 22.2648 21.7768 22.3393L22.7938 22.8421L22.7928 22.8421L22.4317 23.4656L21.1073 22.6929C20.8878 22.7579 20.6463 22.7904 20.3831 22.7904C19.6775 22.7904 19.1504 22.5847 18.8019 22.1739C18.4194 21.7195 18.2283 21.0042 18.2283 20.0291C18.2283 19.0374 18.444 18.2869 18.8759 17.7774C19.2693 17.3112 19.8185 17.0785 20.5235 17.0785ZM16.1228 17.0866C16.6364 17.0866 17.1035 17.224 17.5241 17.4979L17.3105 17.974C16.9505 17.821 16.5956 17.7442 16.2456 17.7442C15.9617 17.7442 15.7429 17.8125 15.5903 17.95C15.437 18.0864 15.3421 18.2618 15.3421 18.4756C15.3421 18.8042 15.5762 19.0891 16.0084 19.3299C16.15 19.4073 16.2911 19.4856 16.4317 19.5648L16.464 19.5829L16.4802 19.592L16.5125 19.6102L16.5286 19.6193L16.5608 19.6374C16.888 19.8219 17.1959 19.998 17.1959 19.998C17.6281 20.3048 17.8435 20.6319 17.8435 21.1706C17.8435 21.6411 17.6711 22.0273 17.3274 22.3295C16.9835 22.6303 16.5215 22.7812 15.9428 22.7812C15.4017 22.7812 14.8772 22.6075 14.3691 22.2632L14.6068 21.7867C15.044 22.0058 15.4396 22.1153 15.7949 22.1153C16.1281 22.1153 16.3889 22.0409 16.5776 21.894C16.7659 21.746 16.8787 21.5396 16.8787 21.2779C16.8787 20.9485 16.6496 20.6669 16.2292 20.4307C16.0977 20.358 15.9665 20.2846 15.8357 20.2105L15.8035 20.1923C15.7444 20.1589 15.6848 20.125 15.6264 20.0919L15.5948 20.0739C15.311 19.9125 15.0656 19.7714 15.0656 19.7714C14.6454 19.4641 14.4347 19.1343 14.4347 18.5909C14.4347 18.1415 14.5918 17.7783 14.9056 17.502C15.2201 17.225 15.6259 17.0866 16.1228 17.0866ZM24.3679 17.1608V22.0259H26.1134V22.7083H23.4826V17.1609L24.3679 17.1608ZM27.0834 22.028V22.1433H26.8915V22.7077H26.7448V22.1433H26.5454V22.028H27.0834ZM27.4377 22.028L27.622 22.4913L27.7913 22.028H27.9993V22.7077H27.861V22.1904L27.6683 22.7077H27.5686L27.3756 22.1904H27.3682V22.7077H27.2374V22.028H27.4377ZM20.4331 17.7608C19.5862 17.7608 19.1626 18.4597 19.1626 19.8565C19.1626 20.6567 19.2748 21.2369 19.499 21.5986C19.7065 21.9332 20.0316 22.1003 20.4742 22.1003C21.3211 22.1003 21.7447 21.3959 21.7447 19.9879C21.7447 19.1989 21.6324 18.6237 21.4086 18.2619C21.2008 17.9279 20.8759 17.7608 20.4331 17.7608" fill="#F29111"/>
<path d="M18.2131 8.16405C18.494 7.47377 19.4763 7.99652 19.8575 8.23764C19.9509 8.29797 20.058 8.42543 20.1652 8.47253C20.3323 8.4791 20.4992 8.49218 20.6666 8.49916C20.9806 8.57294 21.2747 8.63322 21.5221 8.77413C22.6718 9.45124 23.4203 10.1412 24.1091 11.281C24.2563 11.5224 24.3299 11.7836 24.4501 12.0448C24.617 12.4342 24.8045 12.843 24.9982 13.2112C25.0849 13.3857 25.152 13.5798 25.2724 13.7273C25.3194 13.7947 25.4529 13.8145 25.5328 13.8548C25.7535 13.969 26.0208 14.0558 26.2284 14.1898C26.616 14.4315 26.9908 14.7195 27.3315 15.0144C27.4584 15.1282 27.545 15.2893 27.666 15.4097V15.4704C27.5586 15.5034 27.4515 15.5371 27.3444 15.5642C27.1105 15.6243 26.9032 15.6107 26.6763 15.6708C26.536 15.7115 26.3619 15.7652 26.2148 15.7788L26.2284 15.7925C26.3149 16.0398 26.7831 16.2408 26.9972 16.3887C27.2573 16.5764 27.4983 16.804 27.6923 17.0655C27.7592 17.1322 27.8262 17.1929 27.8929 17.2594C27.9395 17.3268 27.9526 17.414 27.9998 17.4741V17.4944C27.9475 17.476 27.91 17.4408 27.8744 17.4041L27.8532 17.3819C27.8319 17.3599 27.8105 17.3382 27.7861 17.3204C27.6385 17.2196 27.492 17.099 27.3444 17.0053C27.0907 16.8444 26.7965 16.7509 26.536 16.5894C26.3887 16.4956 26.2484 16.3887 26.108 16.2814C25.9807 16.1873 25.8405 16.0067 25.7606 15.8726C25.7135 15.7985 25.707 15.7115 25.6532 15.6579C25.6628 15.5684 25.7448 15.5418 25.8275 15.52L25.8465 15.515C25.8751 15.5076 25.903 15.5002 25.9274 15.4904C26.2749 15.3428 26.6893 15.2893 27.2243 15.3027C27.2041 15.1683 26.8698 15.001 26.7631 14.9205C26.5489 14.7661 26.322 14.605 26.0948 14.4645C25.9744 14.3909 25.7669 14.3372 25.6335 14.277C25.4529 14.2032 25.0517 14.1295 24.9517 13.989C24.7818 13.7674 24.6597 13.5032 24.5412 13.2363L24.509 13.1635L24.4766 13.0907C24.3366 12.7692 24.1626 12.4341 24.0222 12.105C23.9488 11.9445 23.9151 11.8036 23.8347 11.6496C23.3468 10.7047 22.6248 9.91357 21.7494 9.35721C21.4618 9.17617 21.141 9.00864 20.7869 8.89478C20.5862 8.83418 20.3454 8.86769 20.1316 8.82119H19.9909C19.8708 8.78735 19.7705 8.66003 19.6768 8.59291C19.4699 8.45238 19.2626 8.35802 19.0151 8.25775C18.9284 8.21753 18.6807 8.12388 18.5943 8.19761C18.5408 8.21107 18.5136 8.23127 18.5004 8.28499C18.4472 8.36514 18.494 8.48589 18.5272 8.55982C18.6276 8.77403 18.7678 8.90135 18.8951 9.08238C19.0084 9.24292 19.149 9.42396 19.2293 9.59852C19.4026 9.97375 19.4833 10.3895 19.6438 10.7647C19.7033 10.9058 19.7975 11.0663 19.8842 11.1936C19.9576 11.2946 20.0912 11.3676 20.1316 11.4955C20.2121 11.6296 20.011 12.0719 19.9645 12.2124C19.7903 12.7621 19.8241 13.5262 20.0246 14.0027L20.0353 14.0278L20.046 14.0533C20.1192 14.2278 20.1976 14.4157 20.3923 14.4645C20.4057 14.4512 20.3923 14.4582 20.4188 14.4512C20.466 14.0824 20.4792 13.7272 20.6063 13.4387C20.6798 13.2582 20.8265 13.1307 20.927 12.9834C20.994 13.0235 20.994 13.1445 21.034 13.2246C21.121 13.4322 21.2144 13.6599 21.3217 13.8682C21.5418 14.2971 21.7895 14.7129 22.0701 15.0881C22.1641 15.2221 22.2975 15.3696 22.4177 15.4903C22.4713 15.5371 22.5313 15.5641 22.5716 15.6242H22.5847V15.6445C22.3842 15.5705 22.257 15.3631 22.0971 15.2419C21.796 15.0143 21.4354 14.6724 21.2278 14.3443C21.141 14.1559 21.0472 13.9754 20.9536 13.788V13.7745C20.9136 13.828 20.927 13.8812 20.907 13.9622C20.8202 14.2971 20.887 14.6792 20.5862 14.7996C20.2453 14.9407 19.9909 14.572 19.8842 14.4044C19.5431 13.8482 19.4497 12.9098 19.6902 12.1524C19.7437 11.9847 19.7509 11.7836 19.8442 11.6497C19.824 11.5287 19.7308 11.4956 19.6768 11.4214C19.5833 11.2947 19.5031 11.147 19.4299 11.0063C19.2892 10.7313 19.189 10.4028 19.0822 10.1079C19.0352 9.98744 19.0218 9.86655 18.975 9.75255C18.8951 9.57855 18.7478 9.40399 18.6343 9.25005C18.4805 9.0288 18.0325 8.59999 18.2131 8.16405ZM20.4055 9.47725C20.4234 9.49516 20.445 9.51082 20.4673 9.52624L20.4942 9.54471C20.53 9.56955 20.5648 9.59571 20.586 9.63133C20.6198 9.67849 20.6261 9.72503 20.6665 9.77228C20.6665 9.93339 20.6198 10.0405 20.5255 10.1073C20.5255 10.1073 20.5191 10.1143 20.5125 10.1208C20.4591 10.0135 20.4122 9.90663 20.3584 9.79933C20.2921 9.70568 20.1984 9.63138 20.1444 9.52436H20.1315V9.51091C20.2121 9.49099 20.2921 9.47725 20.4055 9.47725Z" fill="#00758F"/>
</g>
<defs>
<clipPath id="clip0_108_411">
<rect width="24" height="16.3594" fill="white" transform="translate(4 7.82031)"/>
</clipPath>
</defs>
</svg>
