<svg width="32" height="32" viewBox="0 0 32 32" fill="none" xmlns="http://www.w3.org/2000/svg">
<path d="M0 6C0 2.68629 2.68629 0 6 0H26C29.3137 0 32 2.68629 32 6V26C32 29.3137 29.3137 32 26 32H6C2.68629 32 0 29.3137 0 26V6Z" fill="white"/>
<g clip-path="url(#clip0_108_399)">
<path d="M16 28.3719C15.6584 28.3719 15.3396 28.2808 15.0435 28.1214L12.0145 26.3222C11.559 26.0717 11.7867 25.9806 11.9234 25.935C12.5383 25.7301 12.6521 25.6845 13.2898 25.3201C13.3582 25.2745 13.4493 25.2973 13.5175 25.3428L15.8406 26.7321C15.9317 26.7776 16.0455 26.7776 16.1139 26.7321L25.2009 21.4713C25.292 21.4257 25.3375 21.3346 25.3375 21.2207V10.7217C25.3375 10.6078 25.292 10.5167 25.2009 10.4712L16.1139 5.23302C16.0228 5.18747 15.9089 5.18747 15.8406 5.23302L6.75355 10.4713C6.66246 10.5168 6.61691 10.6307 6.61691 10.7218V21.2207C6.61691 21.3118 6.66246 21.4257 6.75355 21.4713L9.23603 22.906C10.5797 23.5892 11.4223 22.7921 11.4223 21.995V11.6326C11.4223 11.496 11.5362 11.3593 11.6956 11.3593H12.8572C12.9938 11.3593 13.1305 11.4732 13.1305 11.6326V21.995C13.1305 23.7941 12.1511 24.8417 10.443 24.8417C9.91923 24.8417 9.50931 24.8417 8.34787 24.2724L5.95648 22.906C5.36438 22.5643 5 21.9266 5 21.2434V10.7445C5 10.0613 5.36438 9.42368 5.95648 9.08199L15.0435 3.82115C15.6129 3.50232 16.3871 3.50232 16.9565 3.82115L26.0435 9.08199C26.6356 9.42359 27 10.0612 27 10.7445V21.2435C27 21.9267 26.6356 22.5644 26.0435 22.906L16.9565 28.167C16.6604 28.3036 16.3188 28.372 16 28.372M18.8012 21.1524C14.8157 21.1524 13.9959 19.3306 13.9959 17.7819C13.9959 17.6452 14.1097 17.5086 14.2691 17.5086H15.4534C15.59 17.5086 15.7039 17.5997 15.7039 17.7363C15.8861 18.9433 16.4099 19.5355 18.824 19.5355C20.737 19.5355 21.557 19.1028 21.557 18.078C21.557 17.4858 21.3292 17.0531 18.3458 16.757C15.8634 16.5065 14.3147 15.9599 14.3147 13.9786C14.3147 12.1338 15.8633 11.0407 18.4596 11.0407C21.3747 11.0407 22.8095 12.0427 22.9917 14.229C22.9917 14.2974 22.9689 14.3657 22.9234 14.434C22.8778 14.4796 22.8095 14.5251 22.7412 14.5251H21.557C21.443 14.5251 21.3292 14.434 21.3064 14.3201C21.0331 13.0676 20.3271 12.6577 18.4596 12.6577C16.3645 12.6577 16.1139 13.3864 16.1139 13.933C16.1139 14.5935 16.4099 14.7984 19.2339 15.1628C22.0352 15.5271 23.3561 16.051 23.3561 18.0096C23.3333 20.0138 21.6936 21.1524 18.8012 21.1524Z" fill="#539E43"/>
</g>
<defs>
<clipPath id="clip0_108_399">
<rect width="22" height="24.8359" fill="white" transform="translate(5 3.58203)"/>
</clipPath>
</defs>
</svg>
