<svg width="32" height="32" viewBox="0 0 32 32" fill="none" xmlns="http://www.w3.org/2000/svg">
<path d="M0 6C0 2.68629 2.68629 0 6 0H26C29.3137 0 32 2.68629 32 6V26C32 29.3137 29.3137 32 26 32H6C2.68629 32 0 29.3137 0 26V6Z" fill="white"/>
<g clip-path="url(#clip0_108_791)">
<path d="M11.9106 17.158C11.0147 17.4122 10.4269 17.858 10.0397 18.3034C10.4106 17.9789 10.9074 17.681 11.5774 17.491C12.2628 17.2968 12.8476 17.2982 13.3307 17.3915V17.0137C12.9185 16.976 12.446 17.006 11.9106 17.158ZM9.99878 13.982L6.67159 14.8585C6.67159 14.8585 6.73216 14.9442 6.84447 15.0585L9.66559 14.3151C9.66559 14.3151 9.62556 14.8302 9.27841 15.291C9.93512 14.7942 9.99878 13.982 9.99878 13.982ZM12.784 21.8017C8.10156 23.0628 5.62431 17.6364 4.87431 14.8199C4.52781 13.5198 4.3765 12.5352 4.33619 11.8998C4.33236 11.8423 4.33314 11.7846 4.33853 11.7273C4.09572 11.7418 3.97937 11.8681 4.003 12.2331C4.04331 12.868 4.19462 13.8526 4.54112 15.1531C5.29084 17.9692 7.76837 23.3956 12.4508 22.1345C13.47 21.8599 14.2356 21.3598 14.8105 20.7214C14.2806 21.1999 13.6176 21.5767 12.784 21.8017ZM13.6637 10.6609V10.9942H15.5003C15.4627 10.8761 15.4247 10.7698 15.3871 10.6609H13.6637Z" fill="#2D4552"/>
<path d="M15.9112 13.4055C16.7371 13.6401 17.174 14.2192 17.4049 14.7317L18.3259 14.9932C18.3259 14.9932 18.2002 13.1996 16.5779 12.7388C15.0602 12.3076 14.1262 13.5821 14.0126 13.747C14.4542 13.4325 15.0988 13.1749 15.9112 13.4055ZM23.2421 14.7399C21.723 14.3068 20.7894 15.5839 20.6775 15.7465C21.1193 15.4323 21.7637 15.1747 22.5757 15.4063C23.4004 15.6412 23.8368 16.2197 24.0684 16.7325L24.9907 16.995C24.9907 16.995 24.8631 15.2011 23.2421 14.7399ZM22.3271 19.4689L14.6661 17.3272C14.6661 17.3272 14.749 17.7477 15.0672 18.2922L21.5175 20.0954C22.0485 19.7882 22.3271 19.4689 22.3271 19.4689ZM17.0157 24.079C10.9496 22.4526 11.6829 14.7237 12.6645 11.0612C13.0687 9.55187 13.4842 8.43006 13.8288 7.678C13.6232 7.63572 13.4528 7.744 13.2847 8.08619C12.9187 8.82812 12.4508 10.0363 11.9982 11.7275C11.0169 15.39 10.2835 23.1187 16.3493 24.7451C19.2084 25.511 21.4358 24.3469 23.0962 22.5186C21.5202 23.9461 19.508 24.7464 17.0157 24.079Z" fill="#2D4552"/>
<path d="M13.6642 19.9904V18.4307L9.33084 19.6596C9.33084 19.6596 9.65099 17.799 11.911 17.158C12.5964 16.9637 13.1812 16.965 13.6642 17.0583V10.6609H15.8341C15.5978 9.93086 15.3693 9.36883 15.1773 8.97827C14.8597 8.33186 14.5342 8.76039 13.7953 9.37849C13.2748 9.8133 11.9594 10.741 9.97987 11.2743C8.00043 11.8081 6.40003 11.6666 5.73234 11.5509C4.78574 11.3876 4.29065 11.1796 4.33696 11.8997C4.37728 12.5348 4.52849 13.5194 4.87509 14.8198C5.62471 17.636 8.10234 23.0623 12.7848 21.8012C14.0078 21.4717 14.8711 20.8202 15.4695 19.99H13.6642V19.9904ZM6.67162 14.8586L9.99918 13.982C9.99918 13.982 9.90224 15.2621 8.65481 15.5909C7.40699 15.9194 6.67162 14.8586 6.67162 14.8586Z" fill="#E2574C"/>
<path d="M26.1871 10.735C25.3222 10.8866 23.247 11.0755 20.6825 10.3881C18.1172 9.70112 16.4153 8.49962 15.7409 7.93487C14.785 7.13424 14.3645 6.57775 13.9507 7.41943C13.5849 8.16174 13.117 9.3699 12.6642 11.0612C11.683 14.7237 10.9496 22.4523 17.0154 24.0787C23.0798 25.7037 26.3084 18.6433 27.2897 14.9806C27.7425 13.2896 27.9411 12.0092 27.9957 11.1835C28.058 10.2482 27.4155 10.5197 26.1871 10.735ZM14 13.7651C14 13.7651 14.9559 12.2783 16.5772 12.7392C18.1995 13.2 18.3252 14.9935 18.3252 14.9935L14 13.7651ZM17.9577 20.4366C15.1059 19.6013 14.6661 17.3272 14.6661 17.3272L22.3268 19.469C22.3268 19.4687 20.7805 21.2615 17.9577 20.4365M20.6661 15.7631C20.6661 15.7631 21.6208 14.2774 23.2418 14.7395C24.8627 15.2011 24.9903 16.9946 24.9903 16.9946L20.6661 15.7631Z" fill="#2EAD33"/>
<path d="M12.1492 18.8603L9.33014 19.6593C9.33014 19.6593 9.63633 17.9147 11.7131 17.2234L10.1169 11.2325L9.97899 11.2745C7.99945 11.8083 6.39914 11.6667 5.73145 11.551C4.78486 11.3878 4.28967 11.1798 4.33599 11.9C4.3763 12.535 4.52761 13.5196 4.87411 14.82C5.62383 17.6361 8.10145 23.0625 12.7838 21.8014L12.9217 21.758L12.1492 18.8603ZM6.67092 14.8586L9.99849 13.982C9.99849 13.982 9.90155 15.262 8.65411 15.5909C7.4063 15.9194 6.67092 14.8586 6.67092 14.8586Z" fill="#D65348"/>
<path d="M18.0863 20.468L17.9573 20.4366C15.1055 19.6012 14.6657 17.3272 14.6657 17.3272L18.6161 18.4314L20.7074 10.3948L20.6821 10.3882C18.1169 9.70115 16.415 8.49965 15.7406 7.9348C14.7847 7.13418 14.3641 6.57777 13.9503 7.41946C13.5849 8.16177 13.117 9.36993 12.6642 11.0613C11.683 14.7237 10.9496 22.4524 17.0154 24.0786L17.1397 24.1068L18.0863 20.468ZM14 13.765C14 13.765 14.9559 12.2782 16.5772 12.7391C18.1995 13.1999 18.3252 14.9934 18.3252 14.9934L14 13.765Z" fill="#1D8D22"/>
<path d="M12.2933 18.8192L11.5373 19.0338C11.716 20.0407 12.0308 21.007 12.5248 21.8606C12.6109 21.8416 12.6962 21.8253 12.7838 21.8013C13.0134 21.7395 13.2263 21.6627 13.4312 21.5791C12.879 20.7597 12.5138 19.8162 12.2933 18.8192ZM11.9983 11.7276C11.6098 13.1776 11.2621 15.2648 11.3578 17.3582C11.529 17.2839 11.71 17.2146 11.911 17.1576L12.0508 17.1263C11.8802 14.8902 12.249 12.6116 12.6645 11.0612C12.763 10.6935 12.8685 10.3277 12.9807 9.96399C12.7978 10.081 12.611 10.1919 12.4207 10.2965C12.2675 10.7698 12.1267 11.247 11.9983 11.7276Z" fill="#C04B41"/>
</g>
<defs>
<clipPath id="clip0_108_791">
<rect width="24" height="18" fill="white" transform="translate(4 7)"/>
</clipPath>
</defs>
</svg>
