<svg width="32" height="32" viewBox="0 0 32 32" fill="none" xmlns="http://www.w3.org/2000/svg">
<path d="M0 6C0 2.68629 2.68629 0 6 0H26C29.3137 0 32 2.68629 32 6V26C32 29.3137 29.3137 32 26 32H6C2.68629 32 0 29.3137 0 26V6Z" fill="white"/>
<g clip-path="url(#clip0_108_402)">
<path d="M26.9146 18.2418C26.7827 17.8423 26.4371 17.564 25.9903 17.4973C25.7795 17.4658 25.5382 17.4792 25.2527 17.5381C24.7549 17.6408 24.3856 17.6799 24.1161 17.6874C25.1334 15.97 25.9605 14.0115 26.4367 12.1678C27.2067 9.18675 26.7952 7.82868 26.3144 7.2144C25.0419 5.58846 23.1854 4.715 20.9457 4.68827C19.7509 4.67366 18.7021 4.90956 18.1549 5.0792C17.6455 4.98931 17.0977 4.93912 16.5229 4.92984C15.4455 4.91265 14.4936 5.14752 13.6802 5.63023C13.2299 5.47795 12.5072 5.26328 11.6725 5.12629C9.70956 4.80403 8.12745 5.05514 6.97022 5.87266C5.56892 6.86249 4.91932 8.58227 5.03946 10.9842C5.07762 11.7468 5.50421 14.0671 6.1759 16.2677C6.56193 17.5325 6.97357 18.5828 7.39939 19.3898C8.00328 20.534 8.64944 21.2079 9.37484 21.4499C9.78141 21.5853 10.5201 21.6802 11.2971 21.0331C11.3956 21.1523 11.527 21.2709 11.7013 21.3809C11.9228 21.5206 12.1936 21.6347 12.464 21.7023C13.4387 21.946 14.3516 21.8851 15.1304 21.5435C15.1352 21.6821 15.1389 21.8144 15.142 21.9287C15.1472 22.1141 15.1523 22.2958 15.1591 22.4658C15.2053 23.6151 15.2835 24.5088 15.5152 25.1341C15.5279 25.1685 15.545 25.2209 15.563 25.2765C15.6786 25.6304 15.8719 26.2228 16.3636 26.6868C16.8728 27.1675 17.4887 27.3148 18.0528 27.3148C18.3357 27.3148 18.6056 27.2777 18.8424 27.227C19.6863 27.0461 20.6448 26.7706 21.3381 25.7833C21.9936 24.8501 22.3123 23.4444 22.37 21.2295C22.3774 21.1668 22.3844 21.107 22.3909 21.0501L22.4047 20.933L22.5591 20.9466L22.5989 20.9493C23.4584 20.9885 24.5095 20.8062 25.1549 20.5064C25.665 20.2697 27.2994 19.4068 26.9146 18.2418Z" fill="black"/>
<path d="M25.4453 18.4683C22.8896 18.9956 22.7138 18.1303 22.7138 18.1303C25.4123 14.1262 26.5404 9.04357 25.5669 7.79962C22.9111 4.40638 18.3139 6.01118 18.2372 6.05277L18.2125 6.05724C17.7075 5.95239 17.1425 5.89 16.5073 5.87961C15.351 5.8607 14.4737 6.18279 13.808 6.68759C13.808 6.68759 5.60702 3.30904 5.98849 10.9367C6.06962 12.5594 8.31431 23.2148 10.9916 19.9964C11.9702 18.8195 12.9157 17.8244 12.9157 17.8244C13.3853 18.1364 13.9475 18.2955 14.5369 18.2384L14.5827 18.1995C14.5684 18.3456 14.5749 18.4885 14.601 18.6577C13.9112 19.4283 14.114 19.5636 12.7352 19.8475C11.34 20.135 12.1596 20.6468 12.6947 20.7807C13.3435 20.9429 14.8443 21.1727 15.8583 19.7531L15.8179 19.9151C16.0881 20.1316 16.2779 21.323 16.2461 22.4032C16.2143 23.4832 16.1931 24.2248 16.4059 24.804C16.619 25.3832 16.8311 26.6864 18.6437 26.2981C20.1582 25.9735 20.9431 25.1324 21.0523 23.7294C21.1297 22.732 21.3051 22.8795 21.3161 21.9877L21.4568 21.5656C21.619 20.2136 21.4826 19.7773 22.4156 19.9802L22.6425 20.0002C23.3291 20.0314 24.228 19.8897 24.7556 19.6445C25.8915 19.1173 26.5653 18.2371 25.4452 18.4683H25.4453Z" fill="#336791"/>
<path d="M14.288 11.6623C14.0577 11.6302 13.8491 11.6599 13.7436 11.7398C13.6843 11.7848 13.6659 11.8368 13.6609 11.8727C13.6477 11.9676 13.7142 12.0726 13.7551 12.1268C13.8708 12.2801 14.0397 12.3855 14.2069 12.4087C14.2312 12.412 14.2553 12.4137 14.2793 12.4136C14.5582 12.4136 14.8118 12.1965 14.8341 12.0362C14.862 11.8355 14.5706 11.7016 14.288 11.6623ZM21.9179 11.6687C21.8959 11.5113 21.6159 11.4664 21.3502 11.5034C21.0848 11.5403 20.8275 11.6601 20.849 11.8178C20.8662 11.9405 21.0876 12.1498 21.3497 12.1498C21.3719 12.1498 21.3942 12.1483 21.4168 12.1452C21.5917 12.1209 21.7201 12.0098 21.7811 11.9458C21.8739 11.8482 21.9277 11.7394 21.9179 11.6687Z" fill="white"/>
<path d="M26.2956 18.4083C26.1982 18.1137 25.8845 18.0189 25.3634 18.1265C23.816 18.4458 23.2619 18.2246 23.08 18.0906C24.2827 16.2584 25.2721 14.0437 25.8058 11.9773C26.0587 10.9985 26.1983 10.0894 26.2098 9.34847C26.2224 8.53524 26.0839 7.93763 25.7982 7.57257C24.6465 6.10089 22.9561 5.31147 20.9099 5.28981C19.5032 5.274 18.3147 5.63399 18.0843 5.73523C17.5991 5.61457 17.0701 5.54049 16.4943 5.53104C15.4383 5.51394 14.5254 5.76676 13.7697 6.28213C13.4414 6.15993 12.593 5.86869 11.5555 5.70154C9.76183 5.41279 8.33647 5.63159 7.31931 6.35217C6.10562 7.21206 5.5453 8.74914 5.65384 10.9206C5.69037 11.6512 6.10665 13.8986 6.76355 16.0509C7.62826 18.8838 8.56824 20.4874 9.55721 20.8173C9.67297 20.8559 9.80643 20.8829 9.95364 20.8829C10.3144 20.8829 10.7567 20.7203 11.2169 20.1671C11.7782 19.4937 12.3589 18.8367 12.9581 18.1969C13.3469 18.4055 13.774 18.522 14.2108 18.5337C14.2117 18.5452 14.2127 18.5566 14.2138 18.5679C14.1386 18.6576 14.065 18.7486 13.993 18.8408C13.6903 19.225 13.6273 19.305 12.653 19.5056C12.3759 19.5628 11.6398 19.7145 11.629 20.2305C11.6173 20.7942 12.4991 21.031 12.5996 21.0561C12.9497 21.1437 13.287 21.187 13.6086 21.187C14.3909 21.187 15.0794 20.9298 15.6296 20.4323C15.6126 22.4421 15.6964 24.4224 15.9377 25.0258C16.1354 25.5198 16.6182 26.7269 18.1432 26.7268C18.367 26.7268 18.6133 26.7008 18.8843 26.6427C20.4759 26.3015 21.1671 25.598 21.4345 24.0471C21.5775 23.2183 21.8231 21.239 21.9386 20.1774C22.1823 20.2534 22.496 20.2882 22.8352 20.2881C23.5427 20.2881 24.359 20.1378 24.8709 19.9002C25.446 19.6331 26.4838 18.9778 26.2956 18.4083ZM22.5052 11.2343C22.5 11.5477 22.4569 11.8322 22.4111 12.1292C22.3619 12.4487 22.311 12.7789 22.2982 13.1798C22.2856 13.57 22.3343 13.9756 22.3814 14.3679C22.4766 15.1603 22.5743 15.976 22.1961 16.7809C22.1334 16.6695 22.0774 16.5544 22.0285 16.4363C21.9815 16.3224 21.8794 16.1393 21.7381 15.886C21.1882 14.8998 19.9004 12.5903 20.5596 11.6479C20.756 11.3674 21.2543 11.079 22.5052 11.2343ZM20.989 5.92446C22.8224 5.96494 24.2726 6.6508 25.2994 7.9629C26.0869 8.96931 25.2198 13.5487 22.7093 17.4993C22.684 17.4672 22.6586 17.4352 22.6331 17.4033L22.6013 17.3636C23.2501 16.2922 23.1232 15.2322 23.0103 14.2924C22.9639 13.9067 22.9201 13.5424 22.9312 13.2002C22.9428 12.8375 22.9907 12.5264 23.0371 12.2257C23.0941 11.855 23.1521 11.4715 23.1361 11.0194C23.1481 10.9719 23.1529 10.9159 23.1466 10.8494C23.1058 10.4158 22.6108 9.11824 21.6019 7.94382C21.05 7.30144 20.2452 6.58257 19.1463 6.09771C19.6189 5.99974 20.2653 5.90839 20.989 5.92446ZM10.7299 19.7621C10.2229 20.3718 9.87277 20.2549 9.75762 20.2166C9.00738 19.9663 8.13684 18.3806 7.36933 15.8661C6.7052 13.6903 6.31711 11.5024 6.28634 10.8889C6.18941 8.9486 6.65974 7.59637 7.68437 6.86969C9.35191 5.68719 12.0935 6.39497 13.1951 6.75393C13.1793 6.76957 13.1628 6.78418 13.1472 6.80008C11.3394 8.62573 11.3823 11.7449 11.3867 11.9356C11.3866 12.0092 11.3928 12.1133 11.4012 12.2566C11.4323 12.7812 11.4902 13.7577 11.3355 14.8634C11.1918 15.891 11.5086 16.8967 12.2044 17.6228C12.2758 17.6972 12.3509 17.768 12.4293 17.8349C12.1196 18.1666 11.4465 18.9002 10.7299 19.7621ZM12.6617 17.1846C12.1009 16.5994 11.8462 15.7854 11.9628 14.9511C12.1261 13.783 12.0658 12.7657 12.0334 12.2191C12.0289 12.1426 12.0248 12.0756 12.0225 12.0228C12.2866 11.7886 13.5104 11.1329 14.3832 11.3329C14.7814 11.424 15.0241 11.6952 15.125 12.1617C15.6472 14.5768 15.1941 15.5834 14.8301 16.3923C14.7551 16.559 14.6842 16.7165 14.6237 16.8794L14.5767 17.0054C14.458 17.3239 14.3475 17.62 14.279 17.9012C13.6827 17.8995 13.1027 17.6448 12.6617 17.1845M12.7532 20.4415C12.5791 20.3981 12.4225 20.3225 12.3307 20.2599C12.4074 20.2238 12.544 20.1746 12.7808 20.1258C13.927 19.8899 14.104 19.7234 14.4905 19.2326C14.5791 19.12 14.6796 18.9925 14.8187 18.8371L14.8189 18.8369C15.0261 18.6049 15.1209 18.6442 15.2928 18.7156C15.4321 18.7731 15.5678 18.9478 15.6228 19.1399C15.6488 19.2307 15.678 19.4029 15.5824 19.537C14.7749 20.6676 13.5983 20.653 12.7532 20.4415ZM18.7516 26.0234C17.3494 26.3238 16.853 25.6084 16.5258 24.7905C16.3146 24.2625 16.2108 21.8815 16.2845 19.2521C16.2854 19.2171 16.2804 19.1833 16.2708 19.1515C16.2622 19.0887 16.2491 19.0266 16.2316 18.9657C16.1221 18.5831 15.8553 18.2631 15.5352 18.1304C15.408 18.0777 15.1746 17.9811 14.8941 18.0528C14.9539 17.8064 15.0576 17.528 15.1701 17.2266L15.2173 17.0999C15.2704 16.9569 15.3371 16.8089 15.4076 16.6521C15.7885 15.8058 16.3103 14.6466 15.744 12.0278C15.5319 11.0469 14.8236 10.5679 13.7499 10.6792C13.1063 10.7458 12.5173 11.0055 12.2236 11.1544C12.1604 11.1864 12.1027 11.2174 12.0487 11.2474C12.1307 10.2591 12.4404 8.41218 13.599 7.2436C14.3285 6.50798 15.3001 6.14463 16.4838 6.16423C18.8161 6.20238 20.3118 7.39932 21.1559 8.3968C21.8832 9.25626 22.2771 10.1221 22.4343 10.5891C21.2522 10.4688 20.4482 10.7022 20.0407 11.2848C19.1541 12.5522 20.5258 15.0121 21.185 16.1943C21.3059 16.411 21.4102 16.5982 21.4431 16.6778C21.6577 17.1981 21.9356 17.5454 22.1385 17.799C22.2008 17.8766 22.2611 17.952 22.307 18.0178C21.949 18.1211 21.3059 18.3595 21.3645 19.5516C21.3172 20.1497 20.9811 22.9501 20.8104 23.9395C20.585 25.2466 20.104 25.7333 18.7516 26.0234ZM24.6043 19.3258C24.2382 19.4957 23.6255 19.6232 23.0436 19.6506C22.4007 19.6806 22.0735 19.5786 21.9965 19.5157C21.9604 18.7729 22.2369 18.6953 22.5295 18.6131C22.5755 18.6002 22.6203 18.5876 22.6636 18.5725C22.6905 18.5944 22.7201 18.6161 22.7523 18.6375C23.269 18.9785 24.1905 19.0152 25.4915 18.7467L25.5058 18.7438C25.3303 18.9079 25.03 19.1281 24.6043 19.3258Z" fill="white"/>
</g>
<defs>
<clipPath id="clip0_108_402">
<rect width="22" height="22.6875" fill="white" transform="translate(5 4.65625)"/>
</clipPath>
</defs>
</svg>
