<svg width="32" height="32" viewBox="0 0 32 32" fill="none" xmlns="http://www.w3.org/2000/svg">
<path d="M0 6C0 2.68629 2.68629 0 6 0H26C29.3137 0 32 2.68629 32 6V26C32 29.3137 29.3137 32 26 32H6C2.68629 32 0 29.3137 0 26V6Z" fill="white"/>
<g clip-path="url(#clip0_108_581)">
<path d="M25.2095 8.88743C21.2816 3.80093 13.9734 2.86193 8.88669 6.79062C3.80075 10.7193 2.86269 18.0275 6.79138 23.1134C10.7208 28.1992 18.0296 29.1367 23.1148 25.2072C28.1986 21.2786 29.1369 13.9726 25.2095 8.88743Z" fill="#F37036"/>
<path d="M21.0771 8.53073C20.6765 8.56276 20.2967 8.72216 19.9932 8.9856C19.638 9.29406 19.4113 9.72443 19.3579 10.1918C19.3044 10.6592 19.4281 11.1296 19.7044 11.5103C19.9805 11.891 20.3893 12.1545 20.8501 12.2488C21.3109 12.343 21.7902 12.2611 22.1937 12.0194H22.194L22.2233 12.0486C22.3562 11.9725 22.4798 11.8812 22.5917 11.7767C22.9371 11.4115 23.1271 10.9264 23.1216 10.4237C23.1161 9.92108 22.9157 9.44021 22.5625 9.08254V9.08216L20.9042 10.7301L20.875 10.701L22.5332 9.05235C22.3413 8.8673 22.1122 8.72514 21.8612 8.63528C21.6101 8.54542 21.3429 8.50991 21.0771 8.5311V8.53073ZM18.8939 11.2283C18.0989 11.227 16.8008 12.1281 13.6313 15.2976L13.647 15.3137C13.6298 15.3077 13.6124 15.3072 13.6124 15.3072L12.4191 16.4899C12.3885 16.5191 12.3682 16.5574 12.3613 16.5992C12.3545 16.6409 12.3615 16.6837 12.3812 16.7211C12.401 16.7585 12.4324 16.7884 12.4707 16.8063C12.509 16.8242 12.5521 16.8291 12.5935 16.8203L14.6399 16.3838C14.649 16.3754 14.655 16.3642 14.6571 16.3519L14.7025 16.3988L14.005 17.0907H13.9712L9.8301 21.2644L11.1587 22.5439C11.1958 22.5775 11.2427 22.5983 11.2925 22.6034C11.3423 22.6084 11.3924 22.5974 11.4355 22.5719C11.4789 22.5466 11.5137 22.5088 11.5353 22.4634C11.5568 22.4181 11.5642 22.3672 11.5564 22.3176L11.3624 21.4739C11.3502 21.4569 11.3436 21.4366 11.3436 21.4157C11.3436 21.3949 11.3502 21.3745 11.3624 21.3576C13.1762 20.4928 14.8631 19.3836 16.3757 18.0608L15.5254 17.2101L15.5415 17.2075L15.0372 16.7033L15.0694 16.6707L15.1035 16.7055L15.0859 16.7226L16.4241 18.09V18.0895C18.9891 15.6606 20.8097 13.7082 20.3363 12.3942C20.3147 12.237 20.2417 12.0915 20.1287 11.9802V11.9809C20.0999 11.9597 20.0697 11.9405 20.0382 11.9235C20.0226 11.907 20.0089 11.8902 19.9924 11.874L19.98 11.8864C19.9452 11.8654 19.9087 11.8472 19.8709 11.832L19.9251 11.7773C19.5884 11.4773 19.3101 11.229 18.8939 11.2279V11.2283ZM9.80123 21.2894L8.83167 22.2591V22.2599C8.79688 22.2814 8.76983 22.3134 8.75443 22.3514C8.73903 22.3893 8.73607 22.4311 8.74598 22.4708C8.75554 22.5105 8.77738 22.5461 8.80839 22.5727C8.83939 22.5993 8.87798 22.6154 8.91867 22.6187L11.2947 22.7828L9.80123 21.2894Z" fill="white"/>
<path d="M21.2408 8.37061C20.6966 8.36999 20.1741 8.58349 19.786 8.96498C19.5099 9.24757 19.3209 9.60355 19.2415 9.99053C19.162 10.3775 19.1955 10.7792 19.3379 11.1477C18.4489 10.767 17.2463 11.4308 13.5055 15.1709C13.5029 15.1766 13.5006 15.1825 13.4986 15.1885C13.4909 15.1919 13.4834 15.1957 13.4763 15.2001L12.2933 16.3934C12.2366 16.449 12.1994 16.5215 12.1871 16.6C12.1749 16.6785 12.1882 16.7588 12.2253 16.8291C12.2583 16.8847 12.3051 16.9309 12.3611 16.9633C12.4172 16.9956 12.4806 17.0129 12.5453 17.0136L12.604 16.9755L14.1835 16.6386L13.4279 17.4012C13.4236 17.4112 13.4202 17.4216 13.4178 17.4323L9.71464 21.1446C9.69988 21.157 9.68765 21.1722 9.67864 21.1892L8.72501 22.1436C8.67754 22.1938 8.6451 22.2563 8.63138 22.324C8.61766 22.3917 8.6232 22.4619 8.64739 22.5267C8.67234 22.5909 8.71453 22.6471 8.7693 22.6889C8.82408 22.7307 8.88933 22.7567 8.95789 22.7639L11.3238 22.9289C11.3642 22.9148 11.3986 22.8874 11.4213 22.851C11.4415 22.8227 11.4524 22.7888 11.4524 22.754C11.4524 22.7192 11.4415 22.6853 11.4213 22.657L11.4164 22.6523C11.4676 22.6257 11.5126 22.5886 11.5486 22.5435C11.5865 22.4942 11.6131 22.4371 11.6262 22.3762C11.6394 22.3154 11.6389 22.2524 11.6247 22.1918L11.4402 21.4067C13.2103 20.5608 14.8688 19.4989 16.3778 18.2453C16.3924 18.2538 16.408 18.2603 16.4243 18.2646C16.4719 18.261 16.5166 18.2406 16.5503 18.2069C19.0909 15.8012 20.5844 14.1527 20.5844 12.844C20.59 12.6624 20.5626 12.4814 20.5036 12.3096C20.7326 12.4044 20.9768 12.4571 21.2245 12.4652L21.2217 12.466C21.5629 12.4557 21.8965 12.3624 22.1935 12.1941L22.1943 12.1943C22.2327 12.2057 22.2741 12.202 22.3099 12.184C22.4533 12.0996 22.584 11.9953 22.6981 11.8742C22.8915 11.6845 23.0451 11.4582 23.15 11.2084C23.2549 10.9587 23.3089 10.6905 23.3089 10.4196C23.3089 10.1487 23.2549 9.88057 23.1501 9.63081C23.0452 9.38105 22.8916 9.1547 22.6983 8.96498C22.6913 8.95875 22.6839 8.95305 22.6761 8.94792C22.2901 8.5774 21.7757 8.37059 21.2406 8.37079L21.2408 8.37061ZM21.2245 8.70286C21.6034 8.70512 21.9712 8.83114 22.2719 9.06173L20.7591 10.5837C20.754 10.5895 20.7493 10.5956 20.7449 10.602C20.7176 10.6296 20.7016 10.6664 20.7001 10.7052C20.7001 10.7286 20.7053 10.7517 20.7155 10.7728C20.7256 10.7939 20.7404 10.8125 20.7588 10.827H20.7591L21.9029 11.9708C21.5898 12.1074 21.2428 12.1463 20.9073 12.0823C20.5718 12.0183 20.2634 11.8544 20.0226 11.6121C19.5378 11.1246 19.3971 10.3926 19.6564 9.75754C19.9158 9.12192 20.5339 8.70661 21.2245 8.70286ZM22.5595 9.34636C22.8069 9.64562 22.9417 10.022 22.9407 10.4102C22.94 10.8651 22.7587 11.301 22.4367 11.6222C22.3721 11.683 22.3033 11.739 22.2308 11.79L21.3078 10.8812L21.1272 10.7007L21.1769 10.651L22.5593 9.34598L22.5595 9.34636ZM22.4909 10.1325C22.4569 10.1219 22.4203 10.1239 22.3878 10.1384C22.3556 10.155 22.3313 10.1837 22.3203 10.2182C22.3148 10.2355 22.3129 10.2536 22.3145 10.2716C22.3161 10.2896 22.3212 10.3071 22.3296 10.323C22.3629 10.3931 22.376 10.471 22.3675 10.5481C22.359 10.6252 22.3292 10.6984 22.2814 10.7595C22.2692 10.7713 22.2596 10.7856 22.2533 10.8014C22.247 10.8171 22.2442 10.8341 22.2449 10.851C22.2456 10.8855 22.258 10.9185 22.2814 10.9433C22.3064 10.9528 22.3341 10.9528 22.3591 10.9433C22.3816 10.9489 22.4053 10.9483 22.4275 10.9414C22.4497 10.9346 22.4696 10.9218 22.4851 10.9045C22.5649 10.8067 22.6155 10.6883 22.6309 10.563C22.6463 10.4377 22.626 10.3105 22.5723 10.1963V10.197C22.5539 10.1663 22.525 10.1434 22.4909 10.1325ZM18.8764 11.3931C19.1027 11.4008 19.3204 11.4815 19.4971 11.623C19.3068 11.6504 19.1305 11.7385 18.9944 11.8742L14.7181 16.1314L13.8788 15.2922C16.0966 13.0849 17.4526 11.932 18.2956 11.5542C18.4693 11.4448 18.6712 11.3889 18.8764 11.3931ZM19.6199 11.9481C19.7635 11.9482 19.9012 12.0051 20.0029 12.1064C20.057 12.1572 20.0996 12.219 20.128 12.2875C20.1564 12.3561 20.17 12.4299 20.1678 12.504C20.1653 12.578 20.1476 12.6506 20.1159 12.7173C20.0841 12.7841 20.0389 12.8436 19.9831 12.8922L15.4362 16.8495L14.9455 16.3589L19.2368 12.1064C19.3386 12.0052 19.4763 11.9482 19.6199 11.9481ZM20.1813 13.204C19.8644 14.4606 18.1849 16.1633 16.4337 17.8178L15.7255 17.1104L20.1813 13.204ZM13.6315 15.54L13.6829 15.5907L14.3416 16.2494L12.5359 16.6356L13.6315 15.54ZM14.7177 16.635L14.7184 16.6358L14.9374 16.8599L14.9408 16.8756L14.9554 16.8779L15.0019 16.9255L15.1557 17.083L14.146 17.2067L14.7177 16.635ZM15.4428 17.3993L16.1136 18.0698C14.6302 19.3033 13.0023 20.352 11.2658 21.1928C11.2094 21.2196 11.1641 21.2652 11.1376 21.3217C11.111 21.3782 11.1048 21.4422 11.1201 21.5027L11.3142 22.3465C11.3214 22.3564 11.3252 22.3683 11.3252 22.3805C11.3252 22.3927 11.3214 22.4046 11.3142 22.4145C11.3035 22.4241 11.2897 22.4294 11.2754 22.4294C11.2611 22.4294 11.2472 22.4241 11.2366 22.4145L10.0924 21.261L13.6189 17.6828L15.4428 17.3993ZM9.83032 21.513L9.99326 21.6657L10.8355 22.5079L8.95751 22.3864L9.83032 21.513Z" fill="#F37036"/>
</g>
<defs>
<clipPath id="clip0_108_581">
<rect width="24" height="24" fill="white" transform="translate(4 4)"/>
</clipPath>
</defs>
</svg>
