<svg width="32" height="32" viewBox="0 0 32 32" fill="none" xmlns="http://www.w3.org/2000/svg">
<path d="M0 6C0 2.68629 2.68629 0 6 0H26C29.3137 0 32 2.68629 32 6V26C32 29.3137 29.3137 32 26 32H6C2.68629 32 0 29.3137 0 26V6Z" fill="white"/>
<g clip-path="url(#clip0_108_631)">
<path d="M22.375 4H9.625C6.5184 4 4 6.5184 4 9.625V22.375C4 25.4816 6.5184 28 9.625 28H22.375C25.4816 28 28 25.4816 28 22.375V9.625C28 6.5184 25.4816 4 22.375 4Z" fill="#001E36"/>
<path d="M9.40039 20.6913V10.4013C9.40039 10.3313 9.43039 10.2913 9.50042 10.2913C9.67039 10.2913 9.83042 10.2913 10.0604 10.2813C10.3004 10.2713 10.5504 10.2713 10.8204 10.2613C11.0904 10.2513 11.3804 10.2513 11.6904 10.2413C12.0004 10.2313 12.3004 10.2313 12.6004 10.2313C13.4204 10.2313 14.1004 10.3313 14.6604 10.5413C15.1624 10.7118 15.6201 10.9919 16.0004 11.3613C16.3226 11.6846 16.5715 12.0734 16.7304 12.5013C16.8804 12.9213 16.9604 13.3513 16.9604 13.8013C16.9604 14.6613 16.7604 15.3713 16.3604 15.9313C15.9604 16.4913 15.4004 16.9113 14.7504 17.1513C14.0704 17.4013 13.3204 17.4913 12.5004 17.4913C12.2604 17.4913 12.1004 17.4913 12.0004 17.4813C11.9003 17.4713 11.7604 17.4713 11.5704 17.4713V20.6813C11.5804 20.7513 11.5304 20.8113 11.4604 20.8213H9.52039C9.44042 20.8213 9.40039 20.7813 9.40039 20.6913ZM11.5804 12.2213V15.5813C11.7204 15.5913 11.8504 15.6013 11.9704 15.6013H12.5004C12.8904 15.6013 13.2804 15.5413 13.6504 15.4213C13.9704 15.3313 14.2504 15.1413 14.4704 14.8913C14.6804 14.6413 14.7804 14.3013 14.7804 13.8613C14.7898 13.5488 14.71 13.2401 14.5504 12.9713C14.3804 12.7113 14.1404 12.5113 13.8504 12.4013C13.4804 12.2513 13.0804 12.1913 12.6704 12.2013C12.4104 12.2013 12.1804 12.2013 11.9904 12.2113C11.7904 12.2013 11.6504 12.2113 11.5804 12.2213ZM23.2004 14.9713C22.9004 14.8113 22.5804 14.7013 22.2404 14.6313C21.8704 14.5513 21.5004 14.5013 21.1204 14.5013C20.9204 14.4913 20.7104 14.5213 20.5204 14.5713C20.3904 14.6013 20.2804 14.6713 20.2104 14.7713C20.1604 14.8513 20.1304 14.9513 20.1304 15.0413C20.1304 15.1313 20.1704 15.2213 20.2304 15.3013C20.3204 15.4113 20.4404 15.5013 20.5704 15.5713C20.8023 15.6914 21.0392 15.8015 21.2804 15.9013C21.8204 16.0813 22.3404 16.3313 22.8204 16.6313C23.1504 16.8413 23.4204 17.1213 23.6104 17.4613C23.7704 17.7813 23.8504 18.1313 23.8404 18.4913C23.8504 18.9613 23.7104 19.4313 23.4504 19.8213C23.1715 20.2205 22.7823 20.5297 22.3304 20.7113C21.8404 20.9213 21.2404 21.0313 20.5204 21.0313C20.0604 21.0313 19.6104 20.9913 19.1604 20.9013C18.8077 20.8404 18.4647 20.7328 18.1404 20.5813C18.0704 20.5413 18.0204 20.4713 18.0304 20.3913V18.6513C18.0304 18.6213 18.0404 18.5813 18.0704 18.5613C18.1004 18.5413 18.1304 18.5513 18.1604 18.5713C18.5504 18.8013 18.9604 18.9613 19.4004 19.0613C19.7804 19.1613 20.1804 19.2113 20.5804 19.2113C20.9604 19.2113 21.2304 19.1613 21.4104 19.0713C21.5704 19.0013 21.6804 18.8313 21.6804 18.6513C21.6804 18.5113 21.6004 18.3813 21.4404 18.2513C21.2804 18.1213 20.9504 17.9713 20.4604 17.7813C19.9577 17.6041 19.4804 17.3621 19.0404 17.0613C18.727 16.838 18.4674 16.5476 18.2804 16.2113C18.1204 15.8913 18.0404 15.5413 18.0504 15.1913C18.0504 14.7613 18.1704 14.3513 18.3904 13.9813C18.6404 13.5813 19.0104 13.2613 19.4404 13.0613C19.9104 12.8213 20.5004 12.7113 21.2104 12.7113C21.6204 12.7113 22.0404 12.7413 22.4504 12.8013C22.7504 12.8413 23.0404 12.9213 23.3104 13.0313C23.3504 13.0413 23.3904 13.0813 23.4104 13.1213C23.4204 13.1613 23.4304 13.2013 23.4304 13.2413V14.8713C23.4304 14.9113 23.4104 14.9513 23.3804 14.9713C23.2904 14.9913 23.2404 14.9913 23.2004 14.9713Z" fill="#31A8FF"/>
</g>
<defs>
<clipPath id="clip0_108_631">
<rect width="24" height="24" fill="white" transform="translate(4 4)"/>
</clipPath>
</defs>
</svg>
