<svg width="32" height="32" viewBox="0 0 32 32" fill="none" xmlns="http://www.w3.org/2000/svg">
<path d="M0 6C0 2.68629 2.68629 0 6 0H26C29.3137 0 32 2.68629 32 6V26C32 29.3137 29.3137 32 26 32H6C2.68629 32 0 29.3137 0 26V6Z" fill="white"/>
<g clip-path="url(#clip0_108_607)">
<path d="M15.8985 4.05359C9.82045 4.05359 10.2 6.68937 10.2 6.68937L10.2067 9.42012H16.0068V10.24H7.90298C7.90298 10.24 4.01367 9.79887 4.01367 15.9315C4.01367 22.0644 7.40836 21.8469 7.40836 21.8469H9.4343V19.001C9.4343 19.001 9.32508 15.6063 12.7748 15.6063H18.5275C18.5275 15.6063 21.7595 15.6585 21.7595 12.4827V7.23153C21.7595 7.23153 22.2504 4.05359 15.8985 4.05359ZM12.7003 5.88996C12.8373 5.88984 12.9731 5.91675 13.0997 5.96914C13.2264 6.02153 13.3414 6.09839 13.4384 6.1953C13.5353 6.29222 13.6121 6.4073 13.6645 6.53395C13.7169 6.6606 13.7438 6.79634 13.7437 6.9334C13.7438 7.07046 13.7169 7.2062 13.6645 7.33285C13.6121 7.45951 13.5353 7.57458 13.4384 7.6715C13.3414 7.76841 13.2264 7.84527 13.0997 7.89766C12.9731 7.95006 12.8373 7.97696 12.7003 7.97684C12.5632 7.97696 12.4275 7.95006 12.3008 7.89766C12.1742 7.84527 12.0591 7.76841 11.9622 7.6715C11.8653 7.57458 11.7884 7.45951 11.736 7.33285C11.6836 7.2062 11.6567 7.07046 11.6568 6.9334C11.6567 6.79634 11.6836 6.6606 11.736 6.53395C11.7884 6.4073 11.8653 6.29222 11.9622 6.1953C12.0591 6.09839 12.1742 6.02153 12.3008 5.96914C12.4275 5.91675 12.5632 5.88984 12.7003 5.88996Z" fill="url(#paint0_linear_108_607)"/>
<path d="M16.0711 27.8711C22.1491 27.8711 21.7696 25.2354 21.7696 25.2354L21.7629 22.5047H15.9627V21.6849H24.0665C24.0665 21.6849 27.9558 22.126 27.9558 15.9931C27.9558 9.86036 24.5611 10.0779 24.5611 10.0779H22.5352V12.9236C22.5352 12.9236 22.6444 16.3183 19.1947 16.3183H13.442C13.442 16.3183 10.21 16.2661 10.21 19.4421V24.6933C10.21 24.6933 9.71918 27.8711 16.071 27.8711M19.2692 26.035C19.1322 26.0351 18.9964 26.0082 18.8698 25.9558C18.7431 25.9034 18.628 25.8265 18.5311 25.7296C18.4342 25.6327 18.3573 25.5176 18.305 25.391C18.2526 25.2643 18.2257 25.1286 18.2258 24.9915C18.2256 24.8544 18.2525 24.7187 18.3049 24.592C18.3573 24.4654 18.4342 24.3503 18.5311 24.2534C18.628 24.1564 18.7431 24.0796 18.8697 24.0272C18.9964 23.9748 19.1321 23.9479 19.2692 23.948C19.4063 23.9479 19.542 23.9748 19.6687 24.0272C19.7953 24.0796 19.9104 24.1564 20.0073 24.2533C20.1042 24.3502 20.1811 24.4653 20.2335 24.592C20.2859 24.7186 20.3128 24.8544 20.3127 24.9914C20.3128 25.1285 20.2859 25.2642 20.2335 25.3909C20.1811 25.5175 20.1042 25.6326 20.0073 25.7295C19.9104 25.8264 19.7953 25.9033 19.6687 25.9557C19.542 26.0081 19.4063 26.0351 19.2692 26.035Z" fill="url(#paint1_linear_108_607)"/>
</g>
<defs>
<linearGradient id="paint0_linear_108_607" x1="234.096" y1="218.278" x2="1420.59" y2="1392.94" gradientUnits="userSpaceOnUse">
<stop stop-color="#387EB8"/>
<stop offset="1" stop-color="#366994"/>
</linearGradient>
<linearGradient id="paint1_linear_108_607" x1="349.812" y1="376.264" x2="1623.97" y2="1580.77" gradientUnits="userSpaceOnUse">
<stop stop-color="#FFE052"/>
<stop offset="1" stop-color="#FFC331"/>
</linearGradient>
<clipPath id="clip0_108_607">
<rect width="24" height="23.9062" fill="white" transform="translate(4 4.04688)"/>
</clipPath>
</defs>
</svg>
