<svg width="32" height="32" viewBox="0 0 32 32" fill="none" xmlns="http://www.w3.org/2000/svg">
<path d="M0 6C0 2.68629 2.68629 0 6 0H26C29.3137 0 32 2.68629 32 6V26C32 29.3137 29.3137 32 26 32H6C2.68629 32 0 29.3137 0 26V6Z" fill="white"/>
<g clip-path="url(#clip0_108_308)">
<path d="M27.8785 12.0999C26.8047 18.8294 21.0232 23.7959 14.2094 23.8436C13.541 23.8692 12.8718 23.8285 12.2114 23.7221C9.36517 23.2394 7.24342 20.8342 7.11892 17.9499C7.14236 14.6994 9.77167 12.0701 13.0229 12.0466C16.2742 12.0232 18.94 14.6157 19.0089 17.8662C19.033 18.8514 18.6067 19.7171 17.7294 19.7412C16.7919 19.7412 16.3524 19.0719 16.3524 18.1702V15.6654C16.3528 15.2603 16.193 14.8715 15.9079 14.5838C15.6228 14.2961 15.2355 14.1328 14.8304 14.1296H12.7299C11.0467 14.1179 9.57386 15.2568 9.1608 16.8886C8.74773 18.5204 9.50279 20.2226 10.9889 21.0129C11.7111 21.3967 12.5412 21.5272 13.3464 21.3837C14.1515 21.2401 14.8853 20.8308 15.4304 20.2211L15.5037 20.1119L15.577 20.2329C15.8297 20.576 16.1632 20.8514 16.548 21.0347C16.9327 21.2179 17.3567 21.3033 17.7824 21.2832C18.5409 21.2281 19.2478 20.8787 19.7521 20.3095C20.2564 19.7403 20.5183 18.9965 20.4817 18.2369C20.4892 17.5849 20.4162 16.9345 20.2642 16.3004C19.8747 14.5094 18.836 12.926 17.3484 11.8553C15.8608 10.7847 14.0295 10.3025 12.2075 10.5018C8.43348 10.9149 5.58067 14.1104 5.59604 17.9066C5.64517 21.9459 8.87954 25.2234 12.9174 25.3252C12.9174 25.3252 13.4667 25.3751 14.0877 25.3617C17.1017 25.3419 20.0475 24.4628 22.5794 22.8275C22.6152 22.8041 22.6512 22.8517 22.627 22.889C21.3944 24.2167 19.8871 25.2598 18.2102 25.9456C16.5334 26.6315 14.7272 26.9436 12.9174 26.8602C11.7343 26.8815 10.5593 26.663 9.46298 26.2179C8.3667 25.7727 7.37193 25.1101 6.53866 24.2701C5.70538 23.4301 5.05086 22.43 4.61456 21.3302C4.17826 20.2304 3.96922 19.0536 4.00004 17.8707C4.00076 16.4605 4.33035 15.0698 4.96264 13.8092C5.59493 12.5486 6.51249 11.4528 7.64242 10.6089C9.16095 9.49105 10.9958 8.8854 12.8814 8.87956H15.6997C16.8008 8.87868 17.8896 8.64855 18.8969 8.20381C19.9041 7.75907 20.8078 7.10947 21.5502 6.29637C21.566 6.27905 21.5868 6.26716 21.6097 6.2624C21.6326 6.25765 21.6564 6.26029 21.6777 6.26993C21.6992 6.27928 21.7173 6.29511 21.7294 6.31521C21.7414 6.33531 21.7469 6.35868 21.745 6.38206C21.6255 7.64901 21.2035 8.86874 20.5147 9.93874C20.5046 9.95732 20.5001 9.97843 20.5018 9.99951C20.5035 10.0206 20.5113 10.0407 20.5242 10.0574C20.537 10.0743 20.5544 10.0872 20.5743 10.0943C20.5942 10.1015 20.6158 10.1027 20.6364 10.0977C21.9374 9.80397 23.1514 9.20889 24.1805 8.36038C25.2097 7.51188 26.0253 6.43364 26.5617 5.21243C26.5751 5.19043 26.5939 5.17225 26.6164 5.15963C26.6388 5.14701 26.6641 5.14038 26.6899 5.14038C26.7156 5.14038 26.741 5.14701 26.7634 5.15963C26.7858 5.17225 26.8047 5.19043 26.818 5.21243C27.9232 7.32796 28.2961 9.74989 27.8785 12.0999ZM12.7225 15.5921C11.5184 15.5921 10.5414 16.5684 10.5414 17.7732C10.5417 18.3516 10.7716 18.9062 11.1806 19.3152C11.5896 19.7242 12.1442 19.9541 12.7225 19.9544C13.9274 19.9544 14.9037 18.9774 14.9037 17.7732V15.7379C14.9019 15.6987 14.8856 15.6615 14.8578 15.6337C14.83 15.6059 14.7928 15.5895 14.7535 15.5877L12.7225 15.5921Z" fill="#5C2D91"/>
</g>
<defs>
<clipPath id="clip0_108_308">
<rect width="24" height="24" fill="white" transform="translate(4 4)"/>
</clipPath>
</defs>
</svg>
