<svg width="32" height="32" viewBox="0 0 32 32" fill="none" xmlns="http://www.w3.org/2000/svg">
<path d="M0 6C0 2.68629 2.68629 0 6 0H26C29.3137 0 32 2.68629 32 6V26C32 29.3137 29.3137 32 26 32H6C2.68629 32 0 29.3137 0 26V6Z" fill="white"/>
<path d="M15.9998 18.1375C17.1803 18.1375 18.1373 17.1806 18.1373 16C18.1373 14.8195 17.1803 13.8625 15.9998 13.8625C14.8193 13.8625 13.8623 14.8195 13.8623 16C13.8623 17.1806 14.8193 18.1375 15.9998 18.1375Z" fill="#61DAFB"/>
<path d="M24.1189 12.475C23.7064 12.325 23.2752 12.175 22.8252 12.0438C22.9377 11.5938 23.0314 11.1438 23.1064 10.7125C23.5002 8.23755 23.0689 6.4938 21.8689 5.8188C21.5127 5.61255 21.1189 5.5188 20.6689 5.5188C19.3564 5.5188 17.6877 6.4938 16.0002 8.12505C14.3127 6.4938 12.6439 5.5188 11.3314 5.5188C10.8814 5.5188 10.4877 5.61255 10.1314 5.8188C8.93145 6.51255 8.5002 8.2563 8.89395 10.7125C8.96895 11.1438 9.0627 11.5938 9.1752 12.0438C8.7252 12.175 8.29395 12.3063 7.88145 12.475C5.5377 13.375 4.2627 14.6125 4.2627 16C4.2627 17.3876 5.55645 18.6251 7.88145 19.5251C8.29395 19.6751 8.7252 19.825 9.1752 19.9563C9.0627 20.4063 8.96895 20.8563 8.89395 21.2875C8.5002 23.7625 8.93145 25.5063 10.1314 26.1813C10.4877 26.3876 10.8814 26.4813 11.3314 26.4813C12.6627 26.4813 14.3314 25.5063 16.0002 23.8751C17.6877 25.5063 19.3564 26.4813 20.6689 26.4813C21.1189 26.4813 21.5127 26.3876 21.8689 26.1813C23.0689 25.4876 23.5002 23.7438 23.1064 21.2875C23.0314 20.8563 22.9377 20.4063 22.8252 19.9563C23.2752 19.825 23.7064 19.6938 24.1189 19.5251C26.4627 18.6251 27.7377 17.3876 27.7377 16C27.7377 14.6125 26.4627 13.375 24.1189 12.475ZM21.3439 6.7563C22.1127 7.2063 22.3752 8.5938 22.0564 10.5625C22.0002 10.9563 21.9064 11.3688 21.7939 11.8C20.8189 11.575 19.7877 11.425 18.7002 11.3313C18.0627 10.4313 17.4064 9.62505 16.7502 8.8938C18.1377 7.52505 19.5439 6.58755 20.6877 6.58755C20.9314 6.58755 21.1564 6.6438 21.3439 6.7563ZM19.2439 17.8751C18.9064 18.4751 18.5127 19.075 18.1002 19.675C17.4064 19.7313 16.7127 19.7501 16.0002 19.7501C15.2689 19.7501 14.5752 19.7313 13.9002 19.675C13.4877 19.075 13.1127 18.4751 12.7752 17.8751C12.4189 17.2563 12.0814 16.6188 11.7814 16C12.0814 15.3813 12.4189 14.7438 12.7752 14.125C13.1127 13.525 13.5064 12.925 13.9189 12.325C14.6127 12.2688 15.3064 12.25 16.0189 12.25C16.7502 12.25 17.4439 12.2688 18.1189 12.325C18.5314 12.925 18.9064 13.525 19.2439 14.125C19.6002 14.7438 19.9377 15.3813 20.2377 16C19.9189 16.6188 19.6002 17.2376 19.2439 17.8751ZM20.8002 17.2563C21.0814 17.9125 21.3064 18.5501 21.5127 19.1876C20.8752 19.3376 20.2002 19.4501 19.4877 19.5438C19.7127 19.1876 19.9564 18.8126 20.1627 18.4188C20.3877 18.0251 20.5939 17.6313 20.8002 17.2563ZM16.0002 22.3376C15.5502 21.8501 15.1189 21.3251 14.7064 20.7813C15.1377 20.8001 15.5689 20.8188 16.0002 20.8188C16.4314 20.8188 16.8627 20.8001 17.2939 20.7813C16.8814 21.3251 16.4502 21.8501 16.0002 22.3376ZM12.5127 19.5251C11.8002 19.4313 11.1252 19.3188 10.4877 19.1688C10.6939 18.5501 10.9189 17.8938 11.2002 17.2375C11.4064 17.6125 11.6127 18.0063 11.8377 18.3813C12.0627 18.7938 12.2877 19.1501 12.5127 19.5251ZM11.2002 14.7438C10.9189 14.0875 10.6939 13.45 10.4877 12.8125C11.1252 12.6625 11.8002 12.55 12.5127 12.4563C12.2877 12.8125 12.0439 13.1875 11.8377 13.5813C11.6127 13.975 11.4064 14.3688 11.2002 14.7438ZM16.0002 9.66255C16.4502 10.15 16.8814 10.675 17.2939 11.2188C16.8627 11.2 16.4314 11.1813 16.0002 11.1813C15.5689 11.1813 15.1377 11.2 14.7064 11.2188C15.1189 10.675 15.5502 10.15 16.0002 9.66255ZM20.1627 13.6L19.4877 12.475C20.2002 12.5688 20.8752 12.6813 21.5127 12.8313C21.3064 13.45 21.0814 14.1063 20.8002 14.7626C20.5939 14.3688 20.3877 13.975 20.1627 13.6ZM9.94395 10.5625C9.6252 8.5938 9.88769 7.2063 10.6564 6.7563C10.8439 6.6438 11.0689 6.58755 11.3127 6.58755C12.4377 6.58755 13.8439 7.5063 15.2502 8.8938C14.5939 9.6063 13.9377 10.4313 13.3002 11.3313C12.2127 11.425 11.1814 11.5938 10.2064 11.8C10.0939 11.3688 10.0189 10.9563 9.94395 10.5625ZM5.3127 16C5.3127 15.1188 6.38145 14.1813 8.25645 13.4875C8.63145 13.3375 9.04395 13.2063 9.45645 13.0938C9.75645 14.0313 10.1314 15.025 10.5814 16.0188C10.1314 17.0125 9.7377 17.9875 9.45645 18.925C6.86895 18.175 5.3127 17.0501 5.3127 16ZM10.6564 25.2438C9.88769 24.7938 9.6252 23.4063 9.94395 21.4376C10.0002 21.0438 10.0939 20.6313 10.2064 20.2001C11.1814 20.4251 12.2127 20.5751 13.3002 20.6688C13.9377 21.5688 14.5939 22.3751 15.2502 23.1063C13.8627 24.4751 12.4564 25.4126 11.3127 25.4126C11.0689 25.4126 10.8439 25.3563 10.6564 25.2438ZM22.0564 21.4376C22.3752 23.4063 22.1127 24.7938 21.3439 25.2438C21.1564 25.3563 20.9314 25.4126 20.6877 25.4126C19.5627 25.4126 18.1564 24.4938 16.7502 23.1063C17.4064 22.3938 18.0627 21.5688 18.7002 20.6688C19.7877 20.5751 20.8189 20.4063 21.7939 20.2001C21.9064 20.6313 21.9814 21.0438 22.0564 21.4376ZM23.7439 18.5126C23.3689 18.6626 22.9564 18.7938 22.5439 18.9063C22.2439 17.9688 21.8689 16.9751 21.4189 15.9813C21.8689 14.9876 22.2627 14.0126 22.5439 13.0751C25.1314 13.8251 26.6877 14.95 26.6877 16C26.6877 16.8813 25.6002 17.8188 23.7439 18.5126Z" fill="#61DAFB"/>
</svg>
