<svg width="32" height="32" viewBox="0 0 32 32" fill="none" xmlns="http://www.w3.org/2000/svg">
<path d="M0 6C0 2.68629 2.68629 0 6 0H26C29.3137 0 32 2.68629 32 6V26C32 29.3137 29.3137 32 26 32H6C2.68629 32 0 29.3137 0 26V6Z" fill="white"/>
<g clip-path="url(#clip0_108_806)">
<path d="M20.6298 20.5207C18.9423 23.9707 15.9873 26.2919 12.078 27.055C11.4786 27.202 10.8632 27.2738 10.2461 27.2688C7.99609 27.2688 5.93359 26.3313 4.93234 24.7957C3.58796 22.75 3.13046 18.4132 7.56296 15.205C7.65296 15.6944 7.83671 16.3657 7.95859 16.7632C7.08846 17.4096 6.37623 18.2449 5.87546 19.2063C5.05046 20.8263 5.14234 22.4444 6.11921 23.9407C6.79421 24.9494 7.86296 25.5625 9.23734 25.75C10.954 25.9673 12.6955 25.6394 14.2155 24.8125C16.5986 23.56 18.1867 22.0638 19.2255 20.0182C18.9317 19.7146 18.7579 19.315 18.7361 18.8932C18.7204 18.4405 18.8849 18.0001 19.1935 17.6686C19.5022 17.3372 19.9297 17.1417 20.3823 17.125H20.4461C20.8863 17.1228 21.3106 17.29 21.631 17.5918C21.9515 17.8937 22.1437 18.3072 22.1677 18.7468C22.1918 19.1864 22.046 19.6184 21.7604 19.9535C21.4749 20.2885 21.0714 20.501 20.6336 20.5469L20.6298 20.5207ZM26.0055 16.7332C28.2948 19.3282 28.3567 22.3825 27.4717 24.1544C26.6467 25.7725 24.4717 27.3925 21.5467 27.3925C20.1813 27.3646 18.8381 27.0416 17.6092 26.4457C18.0386 26.14 18.648 25.6507 18.9836 25.345C19.9311 25.7558 20.9509 25.9737 21.9836 25.9863C23.8773 25.9863 25.3117 25.1013 26.1667 23.4832C26.7161 22.4144 26.748 21.1619 26.2286 19.8794C25.5914 18.2657 24.4573 16.8965 22.9905 15.97C21.0661 14.6728 18.7975 13.9813 16.4767 13.9844H15.9273C15.7992 14.2803 15.5908 14.5345 15.3257 14.7181C15.0606 14.9017 14.7494 15.0073 14.4273 15.0232H14.3692C13.9237 15.0177 13.498 14.8388 13.1823 14.5244C12.8666 14.21 12.6859 13.785 12.6786 13.3396C12.6713 12.8941 12.8379 12.4634 13.1431 12.1388C13.4482 11.8142 13.8679 11.6214 14.313 11.6013H14.3748C14.685 11.6015 14.989 11.6872 15.2537 11.849C15.5183 12.0107 15.7332 12.2423 15.8748 12.5182H16.3642C20.2642 12.5182 23.688 14.0144 26.0055 16.7332ZM10.4898 21.0457C10.4576 20.7343 10.533 20.4213 10.7036 20.1588C8.99359 17.1963 8.07859 13.4407 9.48296 9.53129C10.4898 6.59317 13.0248 4.60754 15.7736 4.60754C18.7061 4.60754 21.7605 7.17442 22.1261 12.1207C21.6686 11.9688 21.0011 11.7457 20.5998 11.6632C20.5005 10.045 19.1336 6.01379 15.8955 6.07379C14.7348 6.10567 13.0248 6.65504 12.1455 7.78379C11.0578 9.13127 10.425 10.7887 10.338 12.5182C10.1317 14.8896 10.6881 17.265 11.9261 19.2982C11.9944 19.2732 12.0673 19.263 12.1398 19.2682H12.1998C12.6534 19.26 13.0916 19.4323 13.4181 19.7471C13.7445 20.062 13.9326 20.4937 13.9408 20.9472C13.949 21.4008 13.7767 21.839 13.4618 22.1654C13.1469 22.4919 12.7152 22.68 12.2617 22.6882H12.1998C11.7574 22.6866 11.3326 22.5143 11.0141 22.2073C10.6955 21.9003 10.5077 21.4821 10.4898 21.04V21.0457Z" fill="#764ABC"/>
</g>
<defs>
<clipPath id="clip0_108_806">
<rect width="24" height="24" fill="white" transform="translate(4 4)"/>
</clipPath>
</defs>
</svg>
