<svg width="32" height="32" viewBox="0 0 32 32" fill="none" xmlns="http://www.w3.org/2000/svg">
<path d="M0 6C0 2.68629 2.68629 0 6 0H26C29.3137 0 32 2.68629 32 6V26C32 29.3137 29.3137 32 26 32H6C2.68629 32 0 29.3137 0 26V6Z" fill="white"/>
<g clip-path="url(#clip0_108_850)">
<mask id="mask0_108_850" style="mask-type:luminance" maskUnits="userSpaceOnUse" x="4" y="4" width="24" height="24">
<path d="M22.375 4H9.625C6.5184 4 4 6.5184 4 9.625V22.375C4 25.4816 6.5184 28 9.625 28H22.375C25.4816 28 28 25.4816 28 22.375V9.625C28 6.5184 25.4816 4 22.375 4Z" fill="white"/>
</mask>
<g mask="url(#mask0_108_850)">
<path d="M9.625 4C6.51841 4 4 6.51841 4 9.625V22.375C4 25.4816 6.51841 28 9.625 28H19.7931C19.6263 27.5085 19.4957 26.7301 19.4222 25.8416C19.359 25.0773 19.338 24.2318 19.373 23.4163C19.3636 23.2957 19.3578 23.2173 19.3578 23.2173C19.3578 23.2173 19.1822 22.0352 18.9293 21.064C18.8174 20.6329 18.69 20.2431 18.5562 20.0172C18.4873 19.9007 18.5637 19.4218 18.756 18.7126C18.8685 18.9067 19.3431 19.7374 19.4385 20.0052C19.5458 20.3078 19.5683 20.3945 19.5683 20.3945C19.5683 20.3945 19.308 19.0565 18.8808 18.2758C18.9849 17.9279 19.0956 17.582 19.2129 17.2383C19.3608 17.4977 19.6971 18.0934 19.8186 18.3757C19.8299 18.4019 19.84 18.4264 19.8474 18.4467C19.8647 18.4956 19.8792 18.5372 19.8922 18.5752C19.9607 18.7738 19.9774 18.837 19.9774 18.837C19.9774 18.837 19.952 18.707 19.9048 18.5066C19.8848 18.4219 19.86 18.3224 19.8323 18.2163C19.7247 17.803 19.5612 17.2619 19.3518 16.8378C19.8892 14.0447 21.6188 10.3872 23.4822 8.41272C23.6428 8.24266 23.8041 8.08356 23.9658 7.94012C25.055 6.9745 26.1587 6.64825 27.0703 7.46031C27.7297 8.04784 27.9995 8.85953 28 9.79375V9.625C28 6.51841 25.4816 4 22.375 4H9.625Z" fill="#D9D9D9"/>
<path d="M9.625 4C6.51841 4 4 6.51841 4 9.625V22.375C4 25.4816 6.51841 28 9.625 28H19.7931C19.6263 27.5085 19.4957 26.7301 19.4222 25.8416C19.359 25.0773 19.338 24.2318 19.373 23.4163C19.3636 23.2957 19.3578 23.2173 19.3578 23.2173C19.3578 23.2173 19.1822 22.0352 18.9293 21.064C18.8174 20.6329 18.69 20.2431 18.5562 20.0172C18.4873 19.9007 18.5637 19.4218 18.756 18.7126C18.8685 18.9067 19.3431 19.7374 19.4385 20.0052C19.5458 20.3078 19.5683 20.3945 19.5683 20.3945C19.5683 20.3945 19.308 19.0565 18.8808 18.2758C18.9849 17.9279 19.0956 17.582 19.2129 17.2383C19.3608 17.4977 19.6971 18.0934 19.8186 18.3757C19.8299 18.4019 19.84 18.4264 19.8474 18.4467C19.8647 18.4956 19.8792 18.5372 19.8922 18.5752C19.9607 18.7738 19.9774 18.837 19.9774 18.837C19.9774 18.837 19.952 18.707 19.9048 18.5066C19.8848 18.4219 19.86 18.3224 19.8323 18.2163C19.7247 17.803 19.5612 17.2619 19.3518 16.8378C19.8892 14.0447 21.6188 10.3872 23.4822 8.41272C23.6428 8.24266 23.8041 8.08356 23.9658 7.94012C25.055 6.9745 26.1587 6.64825 27.0703 7.46031C27.7297 8.04784 27.9995 8.85953 28 9.79375V9.625C28 6.51841 25.4816 4 22.375 4H9.625Z" fill="url(#paint0_linear_108_850)"/>
<path d="M27.0703 7.46032C26.1587 6.64826 25.055 6.97442 23.9658 7.94014C23.8041 8.08357 23.6428 8.24267 23.4822 8.41264C21.6188 10.3873 19.8892 14.0447 19.3518 16.8379C19.5612 17.2619 19.7247 17.803 19.8323 18.2164C19.86 18.3224 19.8848 18.4219 19.9048 18.5066C19.952 18.707 19.9774 18.837 19.9774 18.837C19.9774 18.837 19.9607 18.7738 19.8922 18.5752C19.8792 18.5372 19.8647 18.4956 19.8474 18.4467C19.8384 18.4228 19.8288 18.3991 19.8186 18.3757C19.6971 18.0934 19.3608 17.4978 19.2129 17.2384C19.0956 17.582 18.9849 17.9279 18.8808 18.2758C19.308 19.0565 19.5683 20.3945 19.5683 20.3945C19.5683 20.3945 19.5458 20.3078 19.4385 20.0052C19.3431 19.7374 18.8685 18.9067 18.756 18.7126C18.5637 19.4218 18.4873 19.9007 18.5562 20.0172C18.69 20.2431 18.8174 20.6329 18.9293 21.064C19.1822 22.0352 19.3578 23.2174 19.3578 23.2174C19.3578 23.2174 19.3636 23.2957 19.373 23.4163C19.338 24.2318 19.359 25.0774 19.4222 25.8416C19.506 26.8533 19.6637 27.7224 19.8647 28.1875L20.0011 28.1132C19.7059 27.1969 19.586 25.9959 19.6385 24.6109C19.7179 22.4939 20.2057 19.9409 21.1068 17.28C22.6293 13.2631 24.7417 10.0402 26.675 8.50104C24.9129 10.0907 22.528 15.2359 21.8141 17.1413C21.0148 19.275 20.4483 21.2773 20.1069 23.1956C20.6959 21.3972 22.6005 20.6241 22.6005 20.6241C22.6005 20.6241 23.5346 19.4734 24.6262 17.8294C23.9723 17.9784 22.8986 18.2334 22.5389 18.3844C22.0084 18.6066 21.8655 18.6825 21.8655 18.6825C21.8655 18.6825 23.5839 17.6372 25.0582 17.1639C27.0858 13.9741 29.2948 9.44248 27.0703 7.46032ZM6.67375 8.59376C6.38659 8.59376 6.15306 8.67767 5.97409 8.84529C5.79503 9.0131 5.70428 9.23314 5.70428 9.50267C5.70428 9.64235 5.72678 9.76967 5.77122 9.88639C5.81566 10.0033 5.88484 10.1117 5.97775 10.2095C6.07075 10.3075 6.25684 10.4406 6.53425 10.6099C6.87456 10.8148 7.09722 10.9811 7.20409 11.111C7.31106 11.2409 7.36412 11.3769 7.36412 11.5187C7.36412 11.7086 7.30084 11.8601 7.17062 11.9741C7.04022 12.088 6.86584 12.1447 6.64956 12.1447C6.42147 12.1447 6.22281 12.0655 6.05219 11.9079C5.88156 11.7502 5.7955 11.5415 5.79353 11.28H5.6875V12.2294H5.79353C5.82597 12.1395 5.87078 12.0934 5.92947 12.0934C5.95759 12.0934 6.02369 12.1127 6.12672 12.1486C6.37712 12.2365 6.58281 12.2789 6.74453 12.2789C7.02306 12.2789 7.26091 12.1827 7.45909 11.9869C7.65691 11.7914 7.75684 11.5555 7.75684 11.2801C7.75684 11.0665 7.69084 10.8765 7.56147 10.7109C7.432 10.5451 7.18028 10.3522 6.80397 10.1306C6.48034 9.93879 6.27016 9.78251 6.17322 9.66064C6.07609 9.53895 6.02622 9.40442 6.02622 9.25667C6.02622 9.09692 6.08566 8.96867 6.20294 8.87295C6.32031 8.77714 6.47397 8.7297 6.66634 8.7297C6.88281 8.7297 7.06319 8.79307 7.20597 8.92067C7.34856 9.04845 7.43106 9.22554 7.45534 9.45317H7.56147V8.63061H7.46275C7.45075 8.67248 7.43959 8.69939 7.42928 8.71132C7.41934 8.72332 7.40013 8.7297 7.37163 8.7297C7.33731 8.7297 7.27609 8.71545 7.18928 8.68751C7.00319 8.62564 6.83163 8.59376 6.67375 8.59376ZM10.1406 8.59385C9.79066 8.59385 9.47303 8.67523 9.18597 8.83807C8.89853 9.00064 8.671 9.2262 8.503 9.51373C8.33519 9.80117 8.25175 10.1065 8.25175 10.4318C8.25175 10.8689 8.39678 11.2583 8.68909 11.5996C8.98159 11.9406 9.33203 12.1532 9.73863 12.2349C9.83163 12.2827 9.96456 12.4061 10.1388 12.6058C10.335 12.8312 10.501 12.9937 10.6375 13.0905C10.7711 13.1856 10.9195 13.2582 11.0766 13.3054C11.2323 13.3521 11.4007 13.3751 11.5829 13.3751C11.8033 13.3751 12.0007 13.3373 12.1745 13.2594L12.1355 13.164C12.0321 13.2 11.9232 13.2181 11.8136 13.2172C11.6597 13.2172 11.5042 13.1672 11.3483 13.0667C11.1927 12.9659 10.9981 12.7737 10.7658 12.4901C10.6567 12.3542 10.5814 12.2685 10.5389 12.2349C10.9837 12.1491 11.3496 11.9364 11.6349 11.5959C11.9202 11.2556 12.0629 10.8671 12.0629 10.4318C12.0629 9.91489 11.8765 9.48054 11.5065 9.12635C11.1363 8.77189 10.6808 8.59385 10.1406 8.59385ZM12.3048 8.59376L12.3105 8.70579C12.5433 8.70579 12.6738 8.77348 12.7031 8.9096C12.7139 8.95835 12.7189 9.04817 12.7198 9.17773L12.7179 11.6546C12.716 11.8396 12.6894 11.9577 12.6379 12.009C12.5865 12.0599 12.4996 12.0917 12.3737 12.1044L12.368 12.2164H14.6905L14.75 11.6546H14.644C14.6137 11.8076 14.5442 11.9173 14.4337 11.9795C14.3228 12.0424 14.1269 12.0733 13.8438 12.0733H13.6242C13.3695 12.0733 13.2221 11.9824 13.1832 11.7995C13.1753 11.7609 13.1716 11.7215 13.1719 11.6821L13.1813 9.17764C13.1813 8.99295 13.2049 8.8692 13.2539 8.80854C13.3034 8.74826 13.3926 8.71442 13.5218 8.70579L13.5163 8.59376H12.3048ZM10.1778 8.7297C10.5725 8.7297 10.8947 8.88298 11.1437 9.19235C11.3926 9.50173 11.5158 9.92586 11.5158 10.4629C11.5159 10.9717 11.3906 11.3793 11.1399 11.6858C10.8891 11.9922 10.5554 12.1448 10.1405 12.1448C9.74209 12.1448 9.41903 11.9874 9.17116 11.6711C8.92338 11.3548 8.80084 10.9441 8.80084 10.439C8.80084 9.92014 8.92488 9.50464 9.17481 9.19414C9.42466 8.88401 9.75916 8.7297 10.1778 8.7297ZM15.5186 9.26201C15.462 9.26201 15.4188 9.28086 15.3865 9.31892C15.3534 9.35679 15.3433 9.40273 15.3548 9.45851C15.366 9.51251 15.3969 9.55995 15.446 9.59989C15.4949 9.63973 15.5476 9.66045 15.6042 9.66045C15.6589 9.66045 15.7007 9.63973 15.7307 9.59989C15.7606 9.55989 15.7699 9.51276 15.7587 9.45851C15.7471 9.40273 15.7172 9.35679 15.6712 9.31892C15.6246 9.28086 15.5733 9.26201 15.5186 9.26201ZM17.0501 9.64207C16.9538 10.0074 16.7452 10.2051 16.4249 10.237L16.4285 10.3416H16.8026L16.7952 11.5791C16.7957 11.7908 16.8023 11.9316 16.8175 12.0034C16.8543 12.1749 16.968 12.2622 17.158 12.2622C17.4331 12.2622 17.7216 12.0969 18.0233 11.7664L17.9322 11.6894C17.7143 11.9069 17.5217 12.0162 17.3535 12.0162C17.2501 12.0162 17.1859 11.9575 17.1617 11.8418C17.1549 11.8092 17.1518 11.7759 17.1525 11.7426L17.1562 10.3416H17.7274L17.7219 10.1746H17.158V9.64207H17.0501ZM19.2589 10.1085C18.9394 10.1085 18.6795 10.2615 18.4774 10.5657C18.2763 10.8704 18.2141 11.2079 18.2932 11.5791C18.3397 11.7966 18.4323 11.9654 18.5742 12.0842C18.7157 12.2029 18.8954 12.2623 19.1101 12.2623C19.31 12.2623 19.5885 12.2122 19.7056 12.1116C19.823 12.0111 19.9313 11.8482 20.0312 11.6251L19.9512 11.5425C19.7918 11.8319 19.47 11.9777 19.2273 11.9777C18.8937 11.9777 18.6894 11.797 18.6133 11.4379C18.603 11.3893 18.5956 11.3403 18.5909 11.2909C18.9878 11.2289 19.2886 11.1191 19.4916 10.9604C19.6944 10.8017 19.8981 10.6333 19.8601 10.4554C19.8374 10.3498 19.7818 10.2667 19.6963 10.2039C19.6097 10.1411 19.3847 10.1085 19.2589 10.1085ZM15.7661 10.1213L15.0776 10.2774V10.3985L15.3157 10.3692C15.4311 10.3692 15.499 10.4208 15.5205 10.5234C15.5277 10.5578 15.5322 10.606 15.5335 10.6667L15.526 11.7775C15.5241 11.9313 15.5068 12.0206 15.4721 12.0474C15.437 12.0743 15.3446 12.0877 15.1948 12.0877L15.191 12.1924H16.2834L16.2815 12.0878C16.1298 12.0878 16.0314 12.076 15.9875 12.0529C15.9444 12.03 15.9148 11.9883 15.9019 11.9244C15.892 11.8783 15.8877 11.799 15.887 11.6894L15.8908 10.1213H15.7661ZM19.0841 10.327C19.1506 10.327 19.2148 10.3523 19.2795 10.4022C19.3432 10.452 19.3821 10.5074 19.3948 10.5675C19.4571 10.8628 19.1917 11.067 18.5946 11.1808C18.5776 10.9654 18.6154 10.7699 18.7119 10.5932C18.8076 10.4166 18.9323 10.327 19.0841 10.327Z" fill="#003B57"/>
</g>
</g>
<defs>
<linearGradient id="paint0_linear_108_850" x1="17.8388" y1="4.49116" x2="17.8388" y2="26.6653" gradientUnits="userSpaceOnUse">
<stop stop-color="#97D9F6"/>
<stop offset="0.92" stop-color="#0F80CC"/>
<stop offset="1" stop-color="#0F80CC"/>
</linearGradient>
<clipPath id="clip0_108_850">
<rect width="24" height="24" fill="white" transform="translate(4 4)"/>
</clipPath>
</defs>
</svg>
