<svg width="32" height="32" viewBox="0 0 32 32" fill="none" xmlns="http://www.w3.org/2000/svg">
<path d="M0 6C0 2.68629 2.68629 0 6 0H26C29.3137 0 32 2.68629 32 6V26C32 29.3137 29.3137 32 26 32H6C2.68629 32 0 29.3137 0 26V6Z" fill="white"/>
<g clip-path="url(#clip0_108_601)">
<path d="M17.9722 27.601C17.3596 28.3729 16.1152 27.9501 16.1015 26.9641L15.8848 12.5442H25.5813C27.3373 12.5442 28.3164 14.5724 27.2244 15.9471L17.9722 27.601Z" fill="url(#paint0_linear_108_601)"/>
<path d="M17.9722 27.601C17.3596 28.3729 16.1152 27.9501 16.1015 26.9641L15.8848 12.5442H25.5813C27.3373 12.5442 28.3164 14.5724 27.2244 15.9471L17.9722 27.601Z" fill="url(#paint1_linear_108_601)" fill-opacity="0.2"/>
<path d="M14.0287 4.39904C14.6413 3.62711 15.8859 4.04992 15.8994 5.03579L15.9946 19.4559H6.41957C4.66364 19.4559 3.68451 17.4277 4.77632 16.0529L14.0287 4.39904Z" fill="#3ECF8E"/>
</g>
<defs>
<linearGradient id="paint0_linear_108_601" x1="15.8856" y1="15.7424" x2="24.5032" y2="19.3566" gradientUnits="userSpaceOnUse">
<stop stop-color="#249361"/>
<stop offset="1" stop-color="#3ECF8E"/>
</linearGradient>
<linearGradient id="paint1_linear_108_601" x1="12.065" y1="10.5113" x2="15.995" y2="17.9096" gradientUnits="userSpaceOnUse">
<stop/>
<stop offset="1" stop-opacity="0"/>
</linearGradient>
<clipPath id="clip0_108_601">
<rect width="24" height="24" fill="white" transform="translate(4 4)"/>
</clipPath>
</defs>
</svg>
