<svg width="32" height="32" viewBox="0 0 32 32" fill="none" xmlns="http://www.w3.org/2000/svg">
<path d="M0 6C0 2.68629 2.68629 0 6 0H26C29.3137 0 32 2.68629 32 6V26C32 29.3137 29.3137 32 26 32H6C2.68629 32 0 29.3137 0 26V6Z" fill="white"/>
<g clip-path="url(#clip0_108_266)">
<path d="M16 8.78125C12.8 8.78125 10.8 10.3812 10 13.5813C11.2 11.9812 12.6 11.3812 14.2 11.7812C15.1128 12.0094 15.7653 12.6718 16.4876 13.4048C17.6642 14.5991 19.0258 15.9813 22 15.9813C25.2 15.9813 27.2 14.3813 28 11.1813C26.8 12.7813 25.4 13.3812 23.8 12.9812C22.8872 12.7531 22.2347 12.0907 21.5124 11.3577C20.3358 10.1634 18.9742 8.78125 16 8.78125ZM10 15.9813C6.8 15.9813 4.8 17.5812 4 20.7812C5.2 19.1812 6.6 18.5813 8.2 18.9813C9.11284 19.2094 9.76534 19.8718 10.4876 20.6048C11.6642 21.7991 13.0258 23.1813 16 23.1813C19.2 23.1813 21.2 21.5813 22 18.3813C20.8 19.9813 19.4 20.5812 17.8 20.1812C16.8872 19.9531 16.2347 19.2907 15.5124 18.5577C14.3358 17.3634 12.9742 15.9813 10 15.9813Z" fill="url(#paint0_linear_108_266)"/>
</g>
<defs>
<linearGradient id="paint0_linear_108_266" x1="-62.672" y1="469.581" x2="2010.12" y2="1664.72" gradientUnits="userSpaceOnUse">
<stop stop-color="#2298BD"/>
<stop offset="1" stop-color="#0ED7B5"/>
</linearGradient>
<clipPath id="clip0_108_266">
<rect width="24" height="14.4375" fill="white" transform="translate(4 8.78125)"/>
</clipPath>
</defs>
</svg>
