<svg width="32" height="32" viewBox="0 0 32 32" fill="none" xmlns="http://www.w3.org/2000/svg">
<path d="M0 6C0 2.68629 2.68629 0 6 0H26C29.3137 0 32 2.68629 32 6V26C32 29.3137 29.3137 32 26 32H6C2.68629 32 0 29.3137 0 26V6Z" fill="white"/>
<g clip-path="url(#clip0_108_301)">
<path d="M22.375 4H9.625C6.5184 4 4 6.5184 4 9.625V22.375C4 25.4816 6.5184 28 9.625 28H22.375C25.4816 28 28 25.4816 28 22.375V9.625C28 6.5184 25.4816 4 22.375 4Z" fill="#007ACC"/>
<path d="M9.3074 16.0796L9.2998 17.0625H12.4236V25.9386H14.6331V17.0625H17.7569V16.0987C17.7569 15.5653 17.7456 15.1196 17.7303 15.1082C17.7188 15.093 15.8179 15.0853 13.5131 15.0892L9.31884 15.1006L9.3074 16.0796ZM23.3658 15.0727C23.9752 15.2251 24.4401 15.4956 24.8667 15.9374C25.0877 16.1737 25.4152 16.6042 25.442 16.707C25.4496 16.7375 24.4057 17.4384 23.7734 17.8308C23.7505 17.8461 23.659 17.747 23.5562 17.5946C23.2476 17.1451 22.9238 16.9507 22.4286 16.9165C21.701 16.8669 21.2324 17.2479 21.2362 17.8841C21.2362 18.0708 21.2629 18.1812 21.3391 18.3336C21.499 18.6651 21.7962 18.8632 22.7296 19.2669C24.4476 20.0061 25.1828 20.4936 25.6401 21.1869C26.1505 21.9603 26.2648 23.1946 25.9181 24.1127C25.5372 25.1107 24.5924 25.7888 23.2628 26.0136C22.8515 26.086 21.8762 26.0746 21.4343 25.9946C20.4705 25.8231 19.5562 25.347 18.9924 24.7222C18.7715 24.4784 18.341 23.8422 18.3677 23.7965C18.379 23.7813 18.4781 23.7203 18.5886 23.6556C18.6952 23.5946 19.0991 23.3622 19.48 23.1412L20.1696 22.7412L20.3143 22.9546C20.5162 23.2631 20.9581 23.686 21.2248 23.8269C21.9905 24.2308 23.042 24.1736 23.56 23.7089C23.781 23.507 23.8724 23.2974 23.8724 22.9889C23.8724 22.7107 23.8381 22.5889 23.6933 22.3793C23.5067 22.1127 23.1258 21.8879 22.0438 21.4193C20.8057 20.886 20.2724 20.5546 19.7848 20.0288C19.5029 19.7241 19.2362 19.2365 19.1257 18.8288C19.0343 18.4898 19.0115 17.6403 19.0838 17.2974C19.339 16.1013 20.2419 15.267 21.5448 15.0193C21.9677 14.9393 22.9505 14.9698 23.3658 15.0727Z" fill="white"/>
</g>
<defs>
<clipPath id="clip0_108_301">
<rect width="24" height="24" fill="white" transform="translate(4 4)"/>
</clipPath>
</defs>
</svg>
