<svg width="32" height="32" viewBox="0 0 32 32" fill="none" xmlns="http://www.w3.org/2000/svg">
<path d="M0 6C0 2.68629 2.68629 0 6 0H26C29.3137 0 32 2.68629 32 6V26C32 29.3137 29.3137 32 26 32H6C2.68629 32 0 29.3137 0 26V6Z" fill="white"/>
<g clip-path="url(#clip0_108_344)">
<path d="M27.3935 7.66002L16.6231 26.9196C16.4005 27.3173 15.8292 27.3196 15.6036 26.9241L4.61951 7.66227C4.37333 7.23064 4.74176 6.70845 5.23095 6.79564L16.013 8.72258C16.0818 8.7351 16.1523 8.7351 16.2211 8.72258L26.7773 6.79864C27.2645 6.70995 27.6351 7.22783 27.3935 7.66002Z" fill="url(#paint0_linear_108_344)"/>
<path d="M21.1491 4.26809L13.1792 5.82959C13.1156 5.84202 13.0579 5.87523 13.0152 5.924C12.9725 5.97277 12.9472 6.03433 12.9433 6.09903L12.4526 14.3805C12.45 14.4259 12.458 14.4714 12.4759 14.5132C12.4939 14.555 12.5213 14.592 12.5561 14.6214C12.5908 14.6507 12.6319 14.6716 12.6761 14.6823C12.7203 14.693 12.7664 14.6933 12.8108 14.6832L15.03 14.1703C15.0778 14.1594 15.1276 14.1606 15.1748 14.1738C15.222 14.1871 15.2652 14.212 15.3002 14.2462C15.3353 14.2805 15.3612 14.323 15.3756 14.3699C15.39 14.4168 15.3924 14.4666 15.3825 14.5146L14.7231 17.7432C14.713 17.7928 14.716 17.8443 14.7318 17.8925C14.7475 17.9407 14.7756 17.9839 14.8131 18.0181C14.8506 18.0522 14.8963 18.076 14.9458 18.0871C14.9952 18.0982 15.0468 18.0963 15.0953 18.0816L16.4655 17.6648C16.678 17.6003 16.8823 17.787 16.8377 18.0045L15.7896 23.0758C15.7243 23.3931 16.1462 23.566 16.3221 23.2941L16.4393 23.1126L22.9343 10.1507C23.0434 9.93322 22.8553 9.68572 22.6174 9.73184L20.3327 10.1728C20.2835 10.1824 20.2327 10.1791 20.1852 10.1634C20.1377 10.1477 20.095 10.12 20.0612 10.083C20.0274 10.046 20.0038 10.0009 19.9924 9.95215C19.9811 9.90337 19.9825 9.85249 19.9965 9.8044L21.4871 4.63653C21.5012 4.58828 21.5025 4.53723 21.4911 4.4883C21.4796 4.43937 21.4557 4.39422 21.4218 4.3572C21.3878 4.32017 21.3449 4.29253 21.2971 4.27692C21.2493 4.26131 21.1984 4.25827 21.1491 4.26809Z" fill="url(#paint1_linear_108_344)"/>
</g>
<defs>
<linearGradient id="paint0_linear_108_344" x1="4.35105" y1="6.10744" x2="17.7561" y2="24.3126" gradientUnits="userSpaceOnUse">
<stop stop-color="#41D1FF"/>
<stop offset="1" stop-color="#BD34FE"/>
</linearGradient>
<linearGradient id="paint1_linear_108_344" x1="15.3947" y1="4.69184" x2="17.8196" y2="21.3265" gradientUnits="userSpaceOnUse">
<stop stop-color="#FFEA83"/>
<stop offset="0.083" stop-color="#FFDD35"/>
<stop offset="1" stop-color="#FFA800"/>
</linearGradient>
<clipPath id="clip0_108_344">
<rect width="24" height="24" fill="white" transform="translate(4 4)"/>
</clipPath>
</defs>
</svg>
