<svg width="32" height="32" viewBox="0 0 32 32" fill="none" xmlns="http://www.w3.org/2000/svg">
<path d="M0 6C0 2.68629 2.68629 0 6 0H26C29.3137 0 32 2.68629 32 6V26C32 29.3137 29.3137 32 26 32H6C2.68629 32 0 29.3137 0 26V6Z" fill="white"/>
<g clip-path="url(#clip0_108_821)">
<path d="M22.0106 11.6538L16.2731 19.9495C16.2275 20.0153 16.1667 20.0691 16.0958 20.1062C16.0249 20.1433 15.946 20.1627 15.8659 20.1625C15.7859 20.1624 15.7071 20.1428 15.6363 20.1055C15.5655 20.0682 15.5048 20.0142 15.4595 19.9482C15.3992 19.8601 15.3695 19.7546 15.375 19.648L15.6046 15.0678L11.8974 14.2818C11.8184 14.2649 11.7447 14.2289 11.6829 14.1769C11.6211 14.125 11.573 14.0586 11.5428 13.9836C11.5128 13.9087 11.5018 13.8275 11.5109 13.7473C11.52 13.6671 11.5489 13.5904 11.595 13.5241L17.3325 5.22833C17.3933 5.14002 17.4814 5.07398 17.5832 5.04021C17.685 5.00644 17.795 5.00679 17.8966 5.04121C17.9981 5.07519 18.0856 5.14136 18.146 5.22965C18.2064 5.31777 18.236 5.42315 18.2306 5.52983L18.0011 10.1101L21.708 10.8961C21.7873 10.913 21.8611 10.949 21.923 11.0011C22.0163 11.0793 22.077 11.1897 22.0932 11.3104C22.1094 11.4311 22.08 11.5537 22.0106 11.6538Z" fill="#FCC72B"/>
<path d="M16.0021 26.9097C15.694 26.9097 15.3985 26.7872 15.1805 26.5694L9.75914 21.1484C9.59733 20.9858 9.48729 20.7789 9.44288 20.5539C9.39847 20.3289 9.42168 20.0957 9.5096 19.8838C9.59752 19.672 9.74619 19.4909 9.93689 19.3634C10.1276 19.2359 10.3518 19.1677 10.5811 19.1675C10.8887 19.1671 11.1839 19.2887 11.402 19.5055L16.0021 24.1049L26.0233 14.0841C26.2411 13.8663 26.5366 13.7439 26.8447 13.7439C27.1528 13.7439 27.4483 13.8663 27.6661 14.0841C27.884 14.302 28.0064 14.5975 28.0064 14.9056C28.0064 15.2137 27.884 15.5092 27.6661 15.727L16.8234 26.5694C16.7156 26.6774 16.5876 26.763 16.4467 26.8214C16.3058 26.8798 16.1547 26.9098 16.0021 26.9097Z" fill="#729B1B"/>
<path d="M15.9982 26.9097C16.1508 26.9097 16.3019 26.8799 16.4427 26.8216C16.5837 26.7631 16.7117 26.6774 16.8196 26.5694L22.241 21.1484C22.458 20.9304 22.5796 20.6352 22.5792 20.3276C22.5788 20.02 22.4563 19.7252 22.2387 19.5078C22.0212 19.2904 21.7264 19.168 21.4189 19.1676C21.1113 19.1672 20.8162 19.2887 20.5981 19.5055L15.9982 24.1049L5.97666 14.0841C5.75803 13.87 5.46374 13.7508 5.1577 13.7523C4.85167 13.7539 4.55862 13.8762 4.34222 14.0926C4.12582 14.309 4.00355 14.602 4.00197 14.9081C4.00039 15.2141 4.11963 15.5084 4.33378 15.727L15.1765 26.5694C15.2843 26.6774 15.4123 26.763 15.5532 26.8214C15.6942 26.8798 15.8452 26.9098 15.9978 26.9097H15.9982Z" fill="#729B1B" fill-opacity="0.5"/>
</g>
<defs>
<clipPath id="clip0_108_821">
<rect width="24" height="24" fill="white" transform="translate(4 4)"/>
</clipPath>
</defs>
</svg>
